<svg xmlns="http://www.w3.org/2000/svg" width="218" height="218" viewBox="0 0 218 218">
  <g fill="none" fill-rule="evenodd" transform="translate(11 14)">
    <circle cx="98.37" cy="97" r="97" fill="#FFF200"/>
    <path fill="#011322" d="M120.736208,0.354598028 L120.736208,3.53660251 C120.736208,6.08220609 119.748567,8.48462456 117.96295,10.282452 C116.169465,12.0882421 113.791232,13.0826159 111.255029,13.0826159 L111.255029,13.0826159 L73.3303157,13.0826159 C72.4848474,13.0826159 71.6947594,13.4167213 71.0942746,14.0133497 C70.5016984,14.6180018 70.1698623,15.4134317 70.1698623,16.2646815 C70.1698623,17.1159314 70.5016984,17.9114223 71.0942746,18.5160133 C71.69482,19.1126417 72.4849081,19.4467471 73.3303157,19.4467471 L73.3303157,19.4467471 L92.2926725,19.4467471 C94.8209867,19.4467471 97.2070884,20.4411209 98.9927052,22.246911 C100.786231,24.0447181 101.773851,26.4471569 101.773851,28.9927605 L101.773851,28.9927605 L101.773851,32.174765 L190.264849,32.174765 C191.947695,32.174765 193.5358,32.8350335 194.728841,34.0362325 L194.728841,34.0362325 L194.935051,34.2524884 C196.004632,35.4260455 196.585534,36.9366789 196.585534,38.5389165 L196.585534,38.5389165 L196.585534,108.543015 C196.585534,110.245311 195.92975,111.836313 194.736709,113.045475 C193.535861,114.246674 191.955644,114.906943 190.264829,114.906943 L190.264829,114.906943 L177.623258,114.906943 L177.623258,147.299239 L168.142079,172.755275 L168.142079,179.421498 C168.616148,179.699905 169.058603,180.010164 169.453647,180.407909 C170.646688,181.616969 171.302472,183.207992 171.302472,184.910369 L171.302472,184.910369 L171.302472,204.002416 L164.981687,204.002416 L164.981687,184.910369 L127.056973,184.910369 L127.056973,204.002416 L120.736187,204.002416 L120.736187,184.910369 C120.736187,183.208073 121.391971,181.617071 122.585012,180.407909 C122.980076,180.010164 123.43042,179.699926 123.89658,179.421498 L123.89658,179.421498 L123.89658,173.463156 C120.35694,169.669189 108.094616,155.68405 108.094616,143.608317 L108.094616,143.608317 L108.094616,127.634553 C108.094616,125.08895 109.082236,122.686531 110.875762,120.888704 C113.443518,118.295365 117.386272,117.603266 120.736187,118.732883 L120.736187,118.732883 L120.736187,114.906535 L76.4906883,114.906535 L76.4906883,118.724941 C79.8327152,117.595304 83.7754695,118.287504 86.3511138,120.880761 C88.1446393,122.686511 89.1322595,125.081007 89.1322595,127.634553 L89.1322595,127.634553 L89.1322595,143.61626 C89.1322595,155.699527 76.8699354,169.684462 73.3302955,173.471099 L73.3302955,173.471099 L73.3302955,179.42944 C73.796456,179.699926 74.2468195,180.018126 74.6418636,180.415872 C75.8349043,181.616989 76.4906883,183.215975 76.4906883,184.910389 L76.4906883,184.910389 L76.4906883,204.002416 L70.1699027,204.002416 L70.1699027,184.910389 L32.2451891,184.910389 L32.2451891,204.002416 L25.9244035,204.002416 L25.9244035,184.910389 C25.9244035,183.216036 26.5801876,181.617071 27.7732283,180.415872 C28.1682925,180.018106 28.6186359,179.707868 29.0847963,179.42944 L29.0847963,179.42944 L29.0847963,172.763217 L19.6036179,147.307181 L19.6036179,114.906739 L6.96204676,114.906739 C5.27131246,114.906739 3.6832075,114.24647 2.4901668,113.037309 C1.2971261,111.836191 0.641342071,110.237206 0.641342071,108.542791 L0.641342071,108.542791 L0.641342071,38.5386925 C0.641342071,36.8363965 1.2971261,35.2453942 2.4901668,34.0362325 C3.69101493,32.8350335 5.27123156,32.174765 6.96204676,32.174765 L6.96204676,32.174765 L95.4530451,32.174765 L95.4530451,28.9927605 C95.4530451,28.1415107 95.1212089,27.3460197 94.5286327,26.7414287 C93.9280873,26.1448003 93.1379992,25.810695 92.2925916,25.810695 L92.2925916,25.810695 L73.3302348,25.810695 C70.8019206,25.810695 68.415819,24.8163211 66.6302021,23.010531 C64.8366767,21.2127239 63.8490564,18.8102851 63.8490564,16.2646815 C63.8490564,13.7190779 64.8366767,11.3166595 66.6302021,9.51883202 C68.4157987,7.71304193 70.8019206,6.71866808 73.3302348,6.71866808 L73.3302348,6.71866808 L111.254948,6.71866808 C112.100437,6.71866808 112.890525,6.3845627 113.483101,5.78793431 C114.083586,5.18328219 114.415422,4.38779125 114.415422,3.53660251 L114.415422,3.53660251 L114.415422,0.354598028 L120.736208,0.354598028 Z M56.6034944,90.3817219 C55.4026463,89.1805229 53.3246551,89.1805229 52.1316144,90.3817219 C51.5390383,90.9863741 51.2072021,91.781865 51.2072021,92.6330537 L51.2072021,92.6330537 L51.2072021,124.453099 L44.8864165,124.453099 L44.8864165,98.9970627 C44.8864165,98.1458129 44.5545803,97.3503219 43.9620041,96.7457309 C42.761156,95.5445318 40.6831648,95.5445318 39.4901242,96.7457309 C38.897548,97.350383 38.5657118,98.145874 38.5657118,98.9970627 L38.5657118,98.9970627 L38.5657118,124.453099 L32.2449262,124.453099 L32.2449262,105.361072 C32.2449262,104.509822 31.91309,103.714331 31.3205138,103.10974 C30.1196657,101.908541 28.0416746,101.908541 26.8486339,103.10974 C26.2560577,103.714392 25.9242215,104.509883 25.9242215,105.361072 L25.9242215,105.361072 L25.9242215,146.145714 L35.4053999,171.60175 L35.4053999,178.546564 L67.0093279,178.546564 L67.0093279,170.862099 L67.9337402,169.923403 C72.0739054,165.754722 82.8113525,152.891482 82.8113525,143.607971 L82.8113525,143.607971 L82.8113525,127.634207 C82.8113525,126.782937 82.4795163,125.987446 81.8869402,125.390817 C80.686092,124.181656 78.6160095,124.181656 77.4150602,125.390817 L77.4150602,125.390817 C76.8220188,125.987405 76.4901826,126.782896 76.4901826,127.634085 L76.4901826,127.634085 L76.4901826,140.362103 L70.169397,140.362103 L70.169397,98.9970627 C70.169397,98.1458129 69.8375609,97.3503219 69.2449847,96.7457309 C68.0441365,95.5445318 65.9661454,95.5445318 64.7731047,96.7457309 C64.1805285,97.350383 63.8486924,98.145874 63.8486924,98.9970627 L63.8486924,98.9970627 L63.8486924,124.453099 L57.5279068,124.453099 L57.5279068,92.6330537 C57.5279068,91.7818039 57.1960706,90.986313 56.6034944,90.3817219 Z M145.094675,90.3805611 C143.901715,89.1793621 141.823724,89.1793621 140.630683,90.3805611 C140.030198,90.9852133 139.698362,91.7807042 139.698362,92.631893 L139.698362,92.631893 L139.698362,124.451938 L133.377577,124.451938 L133.377577,98.9959019 C133.377577,98.1446521 133.04574,97.3491611 132.453164,96.7445701 C131.260204,95.543371 129.182213,95.543371 127.989173,96.7445701 C127.388688,97.3492222 127.056852,98.1447132 127.056852,98.9959019 L127.056852,98.9959019 L127.056852,140.360942 L120.736066,140.360942 L120.736066,127.632924 C120.736066,126.781674 120.40423,125.986183 119.811654,125.381592 C118.610806,124.180393 116.540723,124.180393 115.339774,125.381592 C114.747198,125.986244 114.415361,126.781735 114.415361,127.632924 L114.415361,127.632924 L114.415361,143.606688 C114.415361,152.890606 125.152809,165.753847 129.292974,169.930266 L129.292974,169.930266 L130.217386,170.861 L130.217386,178.545464 L161.821314,178.545464 L161.821314,171.60065 L171.302492,146.144614 L171.302492,105.359911 C171.302492,104.508661 170.970272,103.71317 170.377696,103.108579 C169.184736,101.90738 167.106745,101.90738 165.913704,103.108579 C165.313219,103.713231 164.981383,104.508722 164.981383,105.359911 L164.981383,105.359911 L164.981383,124.451938 L158.660598,124.451938 L158.660598,98.9959019 C158.660598,98.1446521 158.328761,97.3491611 157.736185,96.7445701 C156.543225,95.543371 154.465234,95.543371 153.272194,96.7445701 C152.671709,97.3492222 152.339873,98.1447132 152.339873,98.9959019 L152.339873,98.9959019 L152.339873,124.451938 L146.019087,124.451938 L146.019087,92.631893 C146.019087,91.7806431 145.687251,90.9851522 145.094675,90.3805611 Z M190.264849,38.5368597 L6.96206699,38.5368597 L6.96206699,108.540958 L19.6036382,108.540958 L19.6036382,105.358954 C19.6036382,102.81335 20.5912786,100.410932 22.3768955,98.6131042 C25.0395138,95.9322985 29.1717906,95.2561048 32.5929031,96.5607368 C33.0116122,94.9458059 33.8175174,93.458257 35.0184667,92.2490953 C37.681085,89.5682896 41.8133618,88.8920958 45.2344743,90.1967278 C45.6531834,88.5817969 46.4590886,87.094248 47.6600379,85.8850863 C51.2391195,82.2735876 57.48891,82.2735876 61.0679917,85.8850863 C62.2689005,87.0943498 63.0668971,88.5898207 63.4935552,90.1967278 C66.9146678,88.8842146 71.0469446,89.5682692 73.7095629,92.2490953 C75.5030883,94.0469023 76.4907085,96.4493412 76.4907085,98.9949448 L76.4907085,98.9949448 L76.4907085,108.540958 L120.736208,108.540958 L120.736208,98.9949448 C120.736208,96.4493412 121.723848,94.0469227 123.509465,92.2490953 C126.172083,89.5682896 130.30436,88.8920958 133.725473,90.1967278 C134.15209,88.5817969 134.950087,87.094248 136.151036,85.8850863 C139.738006,82.2735876 145.987797,82.2735876 149.566878,85.8850863 C150.767787,87.0943498 151.565784,88.5898207 151.992442,90.1967278 C155.413554,88.8842146 159.545831,89.5682692 162.20845,92.2490953 C163.409358,93.4583588 164.207355,94.9538296 164.634013,96.5607368 C168.055126,95.2482236 172.187402,95.9322782 174.850021,98.6131042 C176.635658,100.410911 177.623278,102.81335 177.623278,105.358954 L177.623278,105.358954 L177.623278,108.540958 L190.264849,108.540958 L190.264849,38.5368597 Z M114.942121,96.3710599 L114.942121,103.339997 L83.0623116,103.339997 L83.0623116,96.3710599 L114.942121,96.3710599 Z M18.5251373,83.2075127 L18.5251373,90.1764494 L11.5271305,90.1764494 L11.5271305,83.2075127 L18.5251373,83.2075127 Z M31.7435947,83.2075127 L31.7435947,90.1764494 L24.7455879,90.1764494 L24.7455879,83.2075127 L31.7435947,83.2075127 Z M82.2847552,83.2075127 L82.2847552,90.1764494 L75.2867484,90.1764494 L75.2867484,83.2075127 L82.2847552,83.2075127 Z M95.5032126,83.2075127 L95.5032126,90.1764494 L88.5052058,90.1764494 L88.5052058,83.2075127 L95.5032126,83.2075127 Z M107.944114,83.2075127 L107.944114,90.1764494 L100.946107,90.1764494 L100.946107,83.2075127 L107.944114,83.2075127 Z M120.385015,83.2075127 L120.385015,90.1764494 L113.387008,90.1764494 L113.387008,83.2075127 L120.385015,83.2075127 Z M170.926175,83.2075127 L170.926175,90.1764494 L163.928168,90.1764494 L163.928168,83.2075127 L170.926175,83.2075127 Z M184.922189,83.2075127 L184.922189,90.1764494 L177.924182,90.1764494 L177.924182,83.2075127 L184.922189,83.2075127 Z M63.6234037,70.0439655 L63.6234037,77.0129022 L56.6253968,77.0129022 L56.6253968,70.0439655 L63.6234037,70.0439655 Z M89.2827621,70.0439655 L89.2827621,77.0129022 L82.2847552,77.0129022 L82.2847552,70.0439655 L89.2827621,70.0439655 Z M114.942121,70.0439655 L114.942121,77.0129022 L107.944114,77.0129022 L107.944114,70.0439655 L114.942121,70.0439655 Z M38.7416016,70.0439655 L38.7416016,77.0129022 L31.7435947,77.0129022 L31.7435947,70.0439655 L38.7416016,70.0439655 Z M127.383022,70.0439655 L127.383022,77.0129022 L120.385015,77.0129022 L120.385015,70.0439655 L127.383022,70.0439655 Z M25.5231442,70.0439655 L25.5231442,77.0129022 L18.5251373,77.0129022 L18.5251373,70.0439655 L25.5231442,70.0439655 Z M139.046366,70.0439655 L139.046366,77.0129022 L132.048359,77.0129022 L132.048359,70.0439655 L139.046366,70.0439655 Z M50.4049463,70.0439655 L50.4049463,77.0129022 L43.4069394,77.0129022 L43.4069394,70.0439655 L50.4049463,70.0439655 Z M153.04238,70.0439655 L153.04238,77.0129022 L146.044373,77.0129022 L146.044373,70.0439655 L153.04238,70.0439655 Z M76.0643047,70.0439655 L76.0643047,77.0129022 L69.0662979,77.0129022 L69.0662979,70.0439655 L76.0643047,70.0439655 Z M163.928168,70.0439655 L163.928168,77.0129022 L156.930162,77.0129022 L156.930162,70.0439655 L163.928168,70.0439655 Z M101.723663,70.0439655 L101.723663,77.0129022 L94.7256563,77.0129022 L94.7256563,70.0439655 L101.723663,70.0439655 Z M177.924182,70.0439655 L177.924182,77.0129022 L170.926175,77.0129022 L170.926175,70.0439655 L177.924182,70.0439655 Z M82.2847552,57.6547446 L82.2847552,64.6236814 L75.2867484,64.6236814 L75.2867484,57.6547446 L82.2847552,57.6547446 Z M133.603472,57.6547446 L133.603472,64.6236814 L126.605465,64.6236814 L126.605465,57.6547446 L133.603472,57.6547446 Z M159.262831,57.6547446 L159.262831,64.6236814 L152.264824,64.6236814 L152.264824,57.6547446 L159.262831,57.6547446 Z M18.5251373,57.6547446 L18.5251373,64.6236814 L11.5271305,64.6236814 L11.5271305,57.6547446 L18.5251373,57.6547446 Z M57.4029531,57.6547446 L57.4029531,64.6236814 L50.4049463,64.6236814 L50.4049463,57.6547446 L57.4029531,57.6547446 Z M170.926175,57.6547446 L170.926175,64.6236814 L163.928168,64.6236814 L163.928168,57.6547446 L170.926175,57.6547446 Z M70.6214105,57.6547446 L70.6214105,64.6236814 L63.6234037,64.6236814 L63.6234037,57.6547446 L70.6214105,57.6547446 Z M184.922189,57.6547446 L184.922189,64.6236814 L177.924182,64.6236814 L177.924182,57.6547446 L184.922189,57.6547446 Z M95.5032126,57.6547446 L95.5032126,64.6236814 L88.5052058,64.6236814 L88.5052058,57.6547446 L95.5032126,57.6547446 Z M31.7435947,57.6547446 L31.7435947,64.6236814 L24.7455879,64.6236814 L24.7455879,57.6547446 L31.7435947,57.6547446 Z M120.385015,57.6547446 L120.385015,64.6236814 L113.387008,64.6236814 L113.387008,57.6547446 L120.385015,57.6547446 Z M43.4069394,57.6547446 L43.4069394,64.6236814 L36.4089326,64.6236814 L36.4089326,57.6547446 L43.4069394,57.6547446 Z M146.044373,57.6547446 L146.044373,64.6236814 L139.046366,64.6236814 L139.046366,57.6547446 L146.044373,57.6547446 Z M107.944114,57.6547446 L107.944114,64.6236814 L100.946107,64.6236814 L100.946107,57.6547446 L107.944114,57.6547446 Z M25.5231442,44.4911974 L25.5231442,51.4601342 L18.5251373,51.4601342 L18.5251373,44.4911974 L25.5231442,44.4911974 Z M38.7416016,44.4911974 L38.7416016,51.4601342 L31.7435947,51.4601342 L31.7435947,44.4911974 L38.7416016,44.4911974 Z M50.4049463,44.4911974 L50.4049463,51.4601342 L43.4069394,51.4601342 L43.4069394,44.4911974 L50.4049463,44.4911974 Z M63.6234037,44.4911974 L63.6234037,51.4601342 L56.6253968,51.4601342 L56.6253968,44.4911974 L63.6234037,44.4911974 Z M76.0643047,44.4911974 L76.0643047,51.4601342 L69.0662979,51.4601342 L69.0662979,44.4911974 L76.0643047,44.4911974 Z M89.2827621,44.4911974 L89.2827621,51.4601342 L82.2847552,51.4601342 L82.2847552,44.4911974 L89.2827621,44.4911974 Z M101.723663,44.4911974 L101.723663,51.4601342 L94.7256563,51.4601342 L94.7256563,44.4911974 L101.723663,44.4911974 Z M114.942121,44.4911974 L114.942121,51.4601342 L107.944114,51.4601342 L107.944114,44.4911974 L114.942121,44.4911974 Z M127.383022,44.4911974 L127.383022,51.4601342 L120.385015,51.4601342 L120.385015,44.4911974 L127.383022,44.4911974 Z M139.046366,44.4911974 L139.046366,51.4601342 L132.048359,51.4601342 L132.048359,44.4911974 L139.046366,44.4911974 Z M153.04238,44.4911974 L153.04238,51.4601342 L146.044373,51.4601342 L146.044373,44.4911974 L153.04238,44.4911974 Z M163.928168,44.4911974 L163.928168,51.4601342 L156.930162,51.4601342 L156.930162,44.4911974 L163.928168,44.4911974 Z M177.924182,44.4911974 L177.924182,51.4601342 L170.926175,51.4601342 L170.926175,44.4911974 L177.924182,44.4911974 Z"/>
  </g>
</svg>
