<svg xmlns="http://www.w3.org/2000/svg" width="585" height="677" viewBox="0 0 585 677">
  <defs>
    <filter id="logo-large-rect@2x-a">
      <feColorMatrix in="SourceGraphic" values="0 0 0 0 0.518965 0 0 0 0 1.000000 0 0 0 0 0.254078 0 0 0 1.000000 0"/>
    </filter>
  </defs>
  <g fill="none" fill-rule="evenodd" transform="translate(3 3)">
    <rect width="579" height="671" fill="#84FF41" stroke="#000" stroke-width="5"/>
    <g transform="translate(85 120)">
      <circle cx="204.5" cy="204.5" r="204.5" fill="#000"/>
      <g filter="url(#logo-large-rect@2x-a)">
        <g transform="translate(74.364 69.052)">
          <path fill="#235060" fill-rule="nonzero" d="M219.778317,245.499509 L219.778317,270.896104 L228.231333,270.896104 L228.231333,245.499509 C228.231333,243.234975 227.354329,241.118567 225.758832,239.510253 C225.230526,238.981165 224.638814,238.568453 224.004825,238.19811 L224.004825,229.330577 L236.684349,195.468486 L236.684349,152.379653 L253.590382,152.379653 C255.851571,152.379653 257.964852,151.501351 259.57079,149.903494 C261.166286,148.295045 262.04329,146.178664 262.04329,143.914238 L262.04329,50.7934885 C262.04329,48.5289544 261.166286,46.4019816 259.560213,44.8042327 L259.560267,44.8039347 C257.964771,43.2060775 255.84094,42.3277761 253.590409,42.3277761 L135.24818,42.3277761 L135.24818,38.0950148 C135.24818,34.7088057 133.9274,31.513037 131.528853,29.1215607 C129.140883,26.7194652 125.949862,25.3967307 122.568656,25.3967307 L97.2096067,25.3967307 C96.0790124,25.3967307 95.0223989,24.9522975 94.2192677,24.1586514 C93.426794,23.3544132 92.9830174,22.2962364 92.9830174,21.1638881 C92.9830174,20.0315397 93.426794,18.9734442 94.2192677,18.1691247 C95.0223177,17.3754786 96.0789313,16.9310454 97.2096067,16.9310454 L147.927705,16.9310454 C151.319461,16.9310454 154.499959,15.6083109 156.898451,13.2062154 C159.286422,10.814712 160.607229,7.61897045 160.607229,4.23276136 L160.607229,0 L152.154213,0 L152.154213,4.23276136 C152.154213,5.36502841 151.710436,6.4232052 150.907386,7.22752468 C150.114913,8.02117082 149.058299,8.46560399 147.927597,8.46560399 L97.2094985,8.46560399 C93.828292,8.46560399 90.6372445,9.78833852 88.2493012,12.190434 C85.8507544,14.5819374 84.529974,17.777679 84.529974,21.1638881 C84.529974,24.5500971 85.8507544,27.7458658 88.2493012,30.1373421 C90.6372716,32.5394376 93.828292,33.8621721 97.2094985,33.8621721 L122.568548,33.8621721 C123.699142,33.8621721 124.755755,34.3066053 125.558887,35.1002515 C126.35136,35.9044897 126.795137,36.9626664 126.795137,38.0950148 L126.795137,42.3277761 L8.45290814,42.3277761 C6.19171951,42.3277761 4.07843837,43.2060775 2.47250052,44.8039347 C0.877003826,46.4123841 0,48.5287647 0,50.7931905 L0,143.91394 C0,146.167882 0.877003826,148.294882 2.47250052,149.892631 C4.06799721,151.50108 6.1918277,152.379382 8.45290814,152.379382 L25.3589408,152.379382 L25.3589408,195.479051 L38.0384653,229.341142 L38.0384653,238.208675 C37.415052,238.579045 36.8127915,238.991729 36.2844577,239.520845 C34.688961,241.118702 33.8119571,243.245675 33.8119571,245.499536 L33.8119571,270.896104 L42.2649735,270.896104 L42.2649735,245.499536 L92.9830715,245.499536 L92.9830715,270.896104 L101.436088,270.896104 L101.436088,245.499536 C101.436088,243.245594 100.559084,241.118594 98.9635873,239.520845 C98.4352806,238.991757 97.832993,238.56848 97.2095797,238.208675 L97.2095797,230.282779 C101.943269,225.245725 118.342121,206.642705 118.342121,190.569319 L118.342121,169.310156 C118.342121,165.913382 117.02134,162.728179 114.622793,160.326137 C111.178291,156.876538 105.905502,155.95576 101.436088,157.458425 L101.436088,152.379111 L160.607202,152.379111 L160.607202,157.46899 C156.127239,155.966352 150.85445,156.886995 147.420497,160.336702 C145.02195,162.728206 143.70117,165.923947 143.70117,169.310156 L143.70117,190.558754 C143.70117,206.622117 160.100021,225.225408 164.83371,230.272214 L164.83371,238.19811 C164.210297,238.56848 163.608037,238.981165 163.079703,239.510253 C161.484206,241.118702 160.607202,243.235083 160.607202,245.499509 L160.607202,270.896104 L169.060219,270.896104 L169.060219,245.499509 M102.672284,166.325497 C104.278357,164.717048 107.046754,164.717048 108.652692,166.325497 C109.445165,167.119144 109.888942,168.17732 109.888942,169.309696 L109.888942,190.558293 C109.888942,202.907392 95.5293635,220.018312 89.9925701,225.563568 L88.7563199,226.81224 L88.7563199,237.034257 L46.4912382,237.034257 L46.4912382,227.796137 L33.8117137,193.934046 L33.8117137,139.681558 C33.8117137,138.549291 34.2554903,137.491114 35.047964,136.686795 C36.6434606,135.088938 39.4224337,135.088938 41.0283716,136.686795 C41.8208452,137.491033 42.2646218,138.54921 42.2646218,139.681558 L42.2646218,165.078126 L50.7176382,165.078126 L50.7176382,131.216036 C50.7176382,130.083769 51.1614148,129.025592 51.9538884,128.221272 C53.5493851,126.623415 56.3283582,126.623415 57.9342961,128.221272 C58.7267697,129.02551 59.1705463,130.083687 59.1705463,131.216036 L59.1705463,165.078126 L67.6235627,165.078126 L67.6235627,122.750513 C67.6235627,121.618246 68.0673392,120.560069 68.8598129,119.75575 C70.4553096,118.157892 73.2342827,118.157892 74.8402205,119.75575 C75.6326942,120.559988 76.0764708,121.618165 76.0764708,122.750513 L76.0764708,165.078126 L84.5294871,165.078126 L84.5294871,131.216036 C84.5294871,130.083769 84.9732637,129.025592 85.7657374,128.221272 C87.3612341,126.623415 90.1402072,126.623415 91.746145,128.221272 C92.5386187,129.02551 92.9823953,130.083687 92.9823953,131.216036 L92.9823953,186.240579 L101.435412,186.240579 L101.435412,169.309533 C101.435412,168.177266 101.879188,167.119089 102.671662,166.325335 L102.672284,166.325497 Z M228.23136,193.932583 L215.551835,227.794674 L215.551835,237.032794 L173.286754,237.032794 L173.286754,226.810777 L172.050503,225.572698 C166.51371,220.017148 152.154132,202.906227 152.154132,190.556587 L152.154132,169.307989 C152.154132,168.175722 152.597908,167.117545 153.390382,166.313226 C154.996455,164.715369 157.764852,164.715369 159.37079,166.313226 C160.163263,167.117464 160.60704,168.175641 160.60704,169.307989 L160.60704,186.239035 L169.060056,186.239035 L169.060056,131.214491 C169.060056,130.082224 169.503833,129.024048 170.306883,128.219728 C171.90238,126.621871 174.681353,126.621871 176.276741,128.219728 C177.069215,129.023966 177.512991,130.082143 177.512991,131.214491 L177.512991,165.076582 L185.966008,165.076582 L185.966008,122.748969 C185.966008,121.616702 186.409784,120.558525 187.212834,119.754205 C188.808331,118.156348 191.587304,118.156348 193.182693,119.754205 C193.975166,120.558444 194.418943,121.61662 194.418943,122.748969 L194.418943,165.076582 L202.871959,165.076582 L202.871959,131.214491 C202.871959,130.082224 203.315736,129.024048 204.118786,128.219728 C205.714283,126.621871 208.493256,126.621871 210.088644,128.219728 C210.881118,129.023966 211.324894,130.082143 211.324894,131.214491 L211.324894,165.076582 L219.777911,165.076582 L219.777911,139.680014 C219.777911,138.547747 220.221687,137.48957 221.024737,136.685251 C222.620234,135.087394 225.399207,135.087394 226.994596,136.685251 C227.787069,137.489489 228.23136,138.547666 228.23136,139.680014 L228.23136,193.932583 Z M253.590409,143.911502 L236.684376,143.911502 L236.684376,139.678741 C236.684376,136.292532 235.363596,133.096763 232.975598,130.705287 C229.414782,127.139202 223.888538,126.22926 219.31336,127.97519 C218.742775,125.837652 217.675585,123.848349 216.069566,122.239764 C212.50875,118.67368 206.982506,117.763738 202.407327,119.509667 C201.836742,117.372129 200.769552,115.382826 199.163533,113.774241 C194.377097,108.970159 186.019025,108.970159 181.22204,113.774241 C179.615967,115.382691 178.548777,117.361456 177.978245,119.509667 C173.403067,117.774221 167.876823,118.673707 164.316007,122.239764 C161.928037,124.631268 160.607229,127.827009 160.607229,131.213218 L160.607229,143.911502 L101.436115,143.911502 L101.436115,131.213218 C101.436115,127.827009 100.115334,124.63124 97.7167877,122.239764 C94.1559715,118.67368 88.6297275,117.763738 84.0545493,119.509667 C83.483964,117.372129 82.416774,115.382826 80.810755,113.774241 C76.0243191,108.970159 67.666247,108.970159 62.879811,113.774241 C61.2737379,115.382691 60.1959716,117.361456 59.6360167,119.509667 C55.0608385,117.774221 49.5345946,118.673707 45.9737784,122.239764 C44.3677053,123.848213 43.2899389,125.826979 42.7299841,127.97519 C38.1548059,126.239744 32.6285619,127.139229 29.0677457,130.705287 C26.6797753,133.09679 25.3589679,136.292532 25.3589679,139.678741 L25.3589679,143.911502 L8.45293519,143.911502 L8.45293519,50.7907524 L253.590409,50.7907524 L253.590409,143.911502 Z"/>
          <polygon fill="#235060" fill-rule="nonzero" points="24.788 58.429 33.641 58.429 33.641 67.281 24.788 67.281"/>
          <polygon fill="#235060" fill-rule="nonzero" points="42.494 58.429 51.346 58.429 51.346 67.281 42.494 67.281"/>
          <polygon fill="#235060" fill-rule="nonzero" points="58.429 58.429 67.281 58.429 67.281 67.281 58.429 67.281"/>
          <polygon fill="#235060" fill-rule="nonzero" points="76.134 58.429 84.987 58.429 84.987 67.281 76.134 67.281"/>
          <polygon fill="#235060" fill-rule="nonzero" points="92.069 58.429 100.922 58.429 100.922 67.281 92.069 67.281"/>
          <polygon fill="#235060" fill-rule="nonzero" points="109.775 58.429 118.628 58.429 118.628 67.281 109.775 67.281"/>
          <polygon fill="#235060" fill-rule="nonzero" points="127.481 58.429 136.333 58.429 136.333 67.281 127.481 67.281"/>
          <polygon fill="#235060" fill-rule="nonzero" points="143.416 58.429 152.268 58.429 152.268 67.281 143.416 67.281"/>
          <polygon fill="#235060" fill-rule="nonzero" points="161.121 58.429 169.974 58.429 169.974 67.281 161.121 67.281"/>
          <polygon fill="#235060" fill-rule="nonzero" points="177.056 58.429 185.909 58.429 185.909 67.281 177.056 67.281"/>
          <polygon fill="#235060" fill-rule="nonzero" points="194.762 58.429 203.615 58.429 203.615 67.281 194.762 67.281"/>
          <polygon fill="#235060" fill-rule="nonzero" points="210.697 58.429 219.55 58.429 219.55 67.281 210.697 67.281"/>
          <polygon fill="#235060" fill-rule="nonzero" points="228.403 58.429 237.255 58.429 237.255 67.281 228.403 67.281"/>
          <polygon fill="#235060" fill-rule="nonzero" points="15.935 76.134 24.788 76.134 24.788 84.987 15.935 84.987"/>
          <polygon fill="#235060" fill-rule="nonzero" points="33.641 76.134 42.494 76.134 42.494 84.987 33.641 84.987"/>
          <polygon fill="#235060" fill-rule="nonzero" points="49.576 76.134 58.429 76.134 58.429 84.987 49.576 84.987"/>
          <polygon fill="#235060" fill-rule="nonzero" points="67.281 76.134 76.134 76.134 76.134 84.987 67.281 84.987"/>
          <polygon fill="#235060" fill-rule="nonzero" points="84.987 76.134 93.84 76.134 93.84 84.987 84.987 84.987"/>
          <polygon fill="#235060" fill-rule="nonzero" points="100.922 76.134 109.775 76.134 109.775 84.987 100.922 84.987"/>
          <polygon fill="#235060" fill-rule="nonzero" points="118.628 76.134 127.481 76.134 127.481 84.987 118.628 84.987"/>
          <polygon fill="#235060" fill-rule="nonzero" points="134.563 76.134 143.416 76.134 143.416 84.987 134.563 84.987"/>
          <polygon fill="#235060" fill-rule="nonzero" points="152.268 76.134 161.121 76.134 161.121 84.987 152.268 84.987"/>
          <polygon fill="#235060" fill-rule="nonzero" points="168.203 76.134 177.056 76.134 177.056 84.987 168.203 84.987"/>
          <polygon fill="#235060" fill-rule="nonzero" points="185.909 76.134 194.762 76.134 194.762 84.987 185.909 84.987"/>
          <polygon fill="#235060" fill-rule="nonzero" points="203.615 76.134 212.468 76.134 212.468 84.987 203.615 84.987"/>
          <polygon fill="#235060" fill-rule="nonzero" points="219.55 76.134 228.403 76.134 228.403 84.987 219.55 84.987"/>
          <polygon fill="#235060" fill-rule="nonzero" points="237.255 76.134 246.108 76.134 246.108 84.987 237.255 84.987"/>
          <polygon fill="#235060" fill-rule="nonzero" points="24.788 92.069 33.641 92.069 33.641 100.922 24.788 100.922"/>
          <polygon fill="#235060" fill-rule="nonzero" points="42.494 92.069 51.346 92.069 51.346 100.922 42.494 100.922"/>
          <polygon fill="#235060" fill-rule="nonzero" points="58.429 92.069 67.281 92.069 67.281 100.922 58.429 100.922"/>
          <polygon fill="#235060" fill-rule="nonzero" points="76.134 92.069 84.987 92.069 84.987 100.922 76.134 100.922"/>
          <polygon fill="#235060" fill-rule="nonzero" points="92.069 92.069 100.922 92.069 100.922 100.922 92.069 100.922"/>
          <polygon fill="#235060" fill-rule="nonzero" points="109.775 92.069 118.628 92.069 118.628 100.922 109.775 100.922"/>
          <polygon fill="#235060" fill-rule="nonzero" points="127.481 92.069 136.333 92.069 136.333 100.922 127.481 100.922"/>
          <polygon fill="#235060" fill-rule="nonzero" points="143.416 92.069 152.268 92.069 152.268 100.922 143.416 100.922"/>
          <polygon fill="#235060" fill-rule="nonzero" points="161.121 92.069 169.974 92.069 169.974 100.922 161.121 100.922"/>
          <polygon fill="#235060" fill-rule="nonzero" points="177.056 92.069 185.909 92.069 185.909 100.922 177.056 100.922"/>
          <polygon fill="#235060" fill-rule="nonzero" points="194.762 92.069 203.615 92.069 203.615 100.922 194.762 100.922"/>
          <polygon fill="#235060" fill-rule="nonzero" points="210.697 92.069 219.55 92.069 219.55 100.922 210.697 100.922"/>
          <polygon fill="#235060" fill-rule="nonzero" points="228.403 92.069 237.255 92.069 237.255 100.922 228.403 100.922"/>
          <polygon fill="#235060" fill-rule="nonzero" points="15.935 109.775 24.788 109.775 24.788 118.628 15.935 118.628"/>
          <polygon fill="#235060" fill-rule="nonzero" points="33.641 109.775 42.494 109.775 42.494 118.628 33.641 118.628"/>
          <polygon fill="#235060" fill-rule="nonzero" points="100.922 109.775 109.775 109.775 109.775 118.628 100.922 118.628"/>
          <polygon fill="#235060" fill-rule="nonzero" points="118.628 109.775 127.481 109.775 127.481 118.628 118.628 118.628"/>
          <polygon fill="#235060" fill-rule="nonzero" points="134.563 109.775 143.416 109.775 143.416 118.628 134.563 118.628"/>
          <polygon fill="#235060" fill-rule="nonzero" points="152.268 109.775 161.121 109.775 161.121 118.628 152.268 118.628"/>
          <polygon fill="#235060" fill-rule="nonzero" points="219.55 109.775 228.403 109.775 228.403 118.628 219.55 118.628"/>
          <polygon fill="#235060" fill-rule="nonzero" points="237.255 109.775 246.108 109.775 246.108 118.628 237.255 118.628"/>
          <polygon fill="#235060" fill-rule="nonzero" points="109.775 127.481 152.268 127.481 152.268 136.333 109.775 136.333"/>
        </g>
      </g>
    </g>
    <path fill="#000" fill-rule="nonzero" d="M39.2514776,618.227273 L39.2514776,602.149407 L50.5445491,602.149407 L50.5445491,618.227273 L60.8508475,618.227273 L60.8508475,581 L50.5445491,581 L50.5445491,594.757905 L39.2514776,594.757905 L39.2514776,581 L29,581 L29,618.227273 L39.2514776,618.227273 Z M78.0493122,618.227273 C82.2336809,618.227273 85.7354302,618.191614 88.55456,618.120298 C91.3736898,618.048981 93.9357291,617.888519 96.240678,617.638911 L96.240678,617.638911 L95.7619578,610.418103 L81.9854557,610.418103 C80.4606433,610.418103 79.6982372,609.65145 79.6982372,608.118143 L79.6982372,608.118143 L79.6982372,602.501959 L93.7938861,602.501959 L93.7938861,595.602077 L79.6982372,595.602077 L79.6982372,591.10913 C79.6982372,589.575823 80.4606433,588.809169 81.9854557,588.809169 L81.9854557,588.809169 L95.7619578,588.809169 L96.240678,581.588362 C93.9357291,581.338754 91.3736898,581.178292 88.55456,581.106975 C85.7354302,581.035658 82.2336809,581 78.0493122,581 C75.5670595,581 73.5546619,581.722081 72.0121192,583.166242 C70.4695764,584.610404 69.6983051,586.527038 69.6983051,588.916144 L69.6983051,588.916144 L69.6983051,610.311129 C69.6983051,612.700235 70.4607113,614.616869 71.9855236,616.061031 C73.5103359,617.505192 75.5315988,618.227273 78.0493122,618.227273 Z M112.258648,618.227273 C116.256663,618.227273 119.588341,618.19146 122.253684,618.119835 C124.919027,618.048209 127.454805,617.869146 129.861017,617.582645 L129.861017,617.582645 L129.361265,610.008264 L116.367719,610.008264 C114.627842,610.008264 113.757904,609.238292 113.757904,607.698347 L113.757904,607.698347 L113.757904,581 L103.318644,581 L103.318644,610.061983 C103.318644,612.533058 104.096036,614.511708 105.650819,615.997934 C107.205602,617.48416 109.408212,618.227273 112.258648,618.227273 Z M144.109496,618.227273 C148.10751,618.227273 151.439189,618.19146 154.104532,618.119835 C156.769874,618.048209 159.305652,617.869146 161.711864,617.582645 L161.711864,617.582645 L161.212113,610.008264 L148.218566,610.008264 C146.478689,610.008264 145.608751,609.238292 145.608751,607.698347 L145.608751,607.698347 L145.608751,581 L135.169492,581 L135.169492,610.061983 C135.169492,612.533058 135.946883,614.511708 137.501667,615.997934 C139.05645,617.48416 141.25906,618.227273 144.109496,618.227273 Z M183.803351,620 C188.076049,620 191.407305,619.429666 193.797119,618.288997 C196.186934,617.148329 197.92498,615.174791 199.011259,612.368384 C200.097538,609.561978 200.640678,605.60585 200.640678,600.5 C200.640678,595.39415 200.097538,591.438022 199.011259,588.631616 C197.92498,585.825209 196.186934,583.851671 193.797119,582.711003 C191.407305,581.570334 188.076049,581 183.803351,581 C179.530654,581 176.199398,581.570334 173.809584,582.711003 C171.419769,583.851671 169.690775,585.825209 168.622601,588.631616 C167.554426,591.438022 167.020339,595.39415 167.020339,600.5 C167.020339,605.60585 167.554426,609.561978 168.622601,612.368384 C169.690775,615.174791 171.419769,617.148329 173.809584,618.288997 C176.199398,619.429666 179.530654,620 183.803351,620 Z M183.830508,611.136364 C182.17161,611.136364 180.899788,610.805867 180.015042,610.144873 C179.130297,609.483879 178.512818,608.340539 178.162606,606.714852 C177.812394,605.089165 177.637288,602.722093 177.637288,599.613636 C177.637288,596.50518 177.812394,594.138108 178.162606,592.512421 C178.512818,590.886734 179.130297,589.743393 180.015042,589.0824 C180.899788,588.421406 182.17161,588.090909 183.830508,588.090909 C185.489407,588.090909 186.761229,588.421406 187.645975,589.0824 C188.53072,589.743393 189.148199,590.886734 189.498411,592.512421 C189.848623,594.138108 190.023729,596.50518 190.023729,599.613636 C190.023729,602.722093 189.848623,605.089165 189.498411,606.714852 C189.148199,608.340539 188.53072,609.483879 187.645975,610.144873 C186.761229,610.805867 185.489407,611.136364 183.830508,611.136364 Z M237.989321,618.227273 C238.89531,618.227273 239.683521,617.975494 240.353954,617.471937 C241.024386,616.968379 241.413962,616.302964 241.52268,615.475692 L241.52268,615.475692 L244.729884,593.247233 C244.874842,592.240119 245.05604,590.513636 245.273477,588.067787 L245.273477,588.067787 L246.251946,588.067787 C246.360665,589.830237 246.523743,591.538735 246.741181,593.193281 L246.741181,593.193281 L250.002743,615.475692 C250.111462,616.302964 250.501038,616.968379 251.17147,617.471937 C251.841902,617.975494 252.630113,618.227273 253.536103,618.227273 L253.536103,618.227273 L262.61412,618.227273 C263.520109,618.227273 264.29926,617.975494 264.951573,617.471937 C265.603885,616.968379 266.002521,616.302964 266.147479,615.475692 L266.147479,615.475692 L271.420339,581 L261.200776,581 L258.537166,605.278656 C258.319729,607.544664 258.19289,609.468972 258.15665,611.051581 L258.15665,611.051581 L257.178182,611.051581 C257.033223,609.936561 256.833905,608.479842 256.580228,606.681423 L256.580228,606.681423 L256.362791,605.224704 L253.155587,584.021344 C253.046869,583.122134 252.666353,582.393775 252.014041,581.836265 C251.361728,581.278755 250.582577,581 249.676587,581 L249.676587,581 L241.848837,581 C240.906607,581 240.109336,581.278755 239.457024,581.836265 C238.804711,582.393775 238.424196,583.122134 238.315477,584.021344 L238.315477,584.021344 L235.162633,605.170751 L234.292883,611.051581 L233.314414,611.051581 C233.278174,608.929447 233.169456,606.96917 232.988258,605.170751 L232.988258,605.170751 L230.270289,581 L220.105085,581 L225.323585,615.475692 C225.468544,616.302964 225.876239,616.968379 226.546671,617.471937 C227.217104,617.975494 227.987195,618.227273 228.856945,618.227273 L228.856945,618.227273 L237.989321,618.227273 Z M292.843558,618.227273 C293.749548,618.227273 294.537759,617.975494 295.208191,617.471937 C295.878623,616.968379 296.268199,616.302964 296.376918,615.475692 L296.376918,615.475692 L299.584121,593.247233 C299.729079,592.240119 299.910277,590.513636 300.127715,588.067787 L300.127715,588.067787 L301.106184,588.067787 C301.214902,589.830237 301.37798,591.538735 301.595418,593.193281 L301.595418,593.193281 L304.856981,615.475692 C304.9657,616.302964 305.355275,616.968379 306.025707,617.471937 C306.69614,617.975494 307.484351,618.227273 308.39034,618.227273 L308.39034,618.227273 L317.468357,618.227273 C318.374346,618.227273 319.153498,617.975494 319.80581,617.471937 C320.458123,616.968379 320.856758,616.302964 321.001716,615.475692 L321.001716,615.475692 L326.274576,581 L316.055013,581 L313.391403,605.278656 C313.173966,607.544664 313.047127,609.468972 313.010888,611.051581 L313.010888,611.051581 L312.032419,611.051581 C311.88746,609.936561 311.688143,608.479842 311.434466,606.681423 L311.434466,606.681423 L311.217028,605.224704 L308.009825,584.021344 C307.901106,583.122134 307.52059,582.393775 306.868278,581.836265 C306.215965,581.278755 305.436814,581 304.530824,581 L304.530824,581 L296.703074,581 C295.760845,581 294.963574,581.278755 294.311261,581.836265 C293.658949,582.393775 293.278433,583.122134 293.169714,584.021344 L293.169714,584.021344 L290.01687,605.170751 L289.14712,611.051581 L288.168651,611.051581 C288.132412,608.929447 288.023693,606.96917 287.842495,605.170751 L287.842495,605.170751 L285.124526,581 L274.959322,581 L280.177822,615.475692 C280.322781,616.302964 280.730476,616.968379 281.400909,617.471937 C282.071341,617.975494 282.841432,618.227273 283.711182,618.227273 L283.711182,618.227273 L292.843558,618.227273 Z M349.467287,618.227273 C350.373276,618.227273 351.161487,617.975494 351.83192,617.471937 C352.502352,616.968379 352.891928,616.302964 353.000646,615.475692 L353.000646,615.475692 L356.20785,593.247233 C356.352808,592.240119 356.534006,590.513636 356.751444,588.067787 L356.751444,588.067787 L357.729912,588.067787 C357.838631,589.830237 358.001709,591.538735 358.219147,593.193281 L358.219147,593.193281 L361.48071,615.475692 C361.589428,616.302964 361.979004,616.968379 362.649436,617.471937 C363.319869,617.975494 364.10808,618.227273 365.014069,618.227273 L365.014069,618.227273 L374.092086,618.227273 C374.998075,618.227273 375.777226,617.975494 376.429539,617.471937 C377.081851,616.968379 377.480487,616.302964 377.625445,615.475692 L377.625445,615.475692 L382.898305,581 L372.678742,581 L370.015132,605.278656 C369.797695,607.544664 369.670856,609.468972 369.634616,611.051581 L369.634616,611.051581 L368.656148,611.051581 C368.511189,609.936561 368.311872,608.479842 368.058194,606.681423 L368.058194,606.681423 L367.840757,605.224704 L364.633554,584.021344 C364.524835,583.122134 364.144319,582.393775 363.492007,581.836265 C362.839694,581.278755 362.060543,581 361.154553,581 L361.154553,581 L353.326803,581 C352.384573,581 351.587302,581.278755 350.93499,581.836265 C350.282677,582.393775 349.902162,583.122134 349.793443,584.021344 L349.793443,584.021344 L346.640599,605.170751 L345.770849,611.051581 L344.79238,611.051581 C344.75614,608.929447 344.647422,606.96917 344.466224,605.170751 L344.466224,605.170751 L341.748255,581 L331.583051,581 L336.801551,615.475692 C336.94651,616.302964 337.354205,616.968379 338.024637,617.471937 C338.69507,617.975494 339.465161,618.227273 340.334911,618.227273 L340.334911,618.227273 L349.467287,618.227273 Z M404.989792,620 C409.26249,620 412.593746,619.429666 414.98356,618.288997 C417.373374,617.148329 419.111421,615.174791 420.1977,612.368384 C421.283979,609.561978 421.827119,605.60585 421.827119,600.5 C421.827119,595.39415 421.283979,591.438022 420.1977,588.631616 C419.111421,585.825209 417.373374,583.851671 414.98356,582.711003 C412.593746,581.570334 409.26249,581 404.989792,581 C400.717094,581 397.385838,581.570334 394.996024,582.711003 C392.60621,583.851671 390.877216,585.825209 389.809041,588.631616 C388.740867,591.438022 388.20678,595.39415 388.20678,600.5 C388.20678,605.60585 388.740867,609.561978 389.809041,612.368384 C390.877216,615.174791 392.60621,617.148329 394.996024,618.288997 C397.385838,619.429666 400.717094,620 404.989792,620 Z M405.016949,611.136364 C403.358051,611.136364 402.086229,610.805867 401.201483,610.144873 C400.316737,609.483879 399.699258,608.340539 399.349047,606.714852 C398.998835,605.089165 398.823729,602.722093 398.823729,599.613636 C398.823729,596.50518 398.998835,594.138108 399.349047,592.512421 C399.699258,590.886734 400.316737,589.743393 401.201483,589.0824 C402.086229,588.421406 403.358051,588.090909 405.016949,588.090909 C406.675847,588.090909 407.947669,588.421406 408.832415,589.0824 C409.717161,589.743393 410.33464,590.886734 410.684852,592.512421 C411.035064,594.138108 411.210169,596.50518 411.210169,599.613636 C411.210169,602.722093 411.035064,605.089165 410.684852,606.714852 C410.33464,608.340539 409.717161,609.483879 408.832415,610.144873 C407.947669,610.805867 406.675847,611.136364 405.016949,611.136364 Z M439.046921,618.227273 L439.046921,604.4 L443.706683,604.4 C444.766551,604.4 445.561452,604.595 446.091385,604.985 C446.621319,605.375 447.014201,606.101818 447.270031,607.165455 L447.270031,607.165455 L449.956247,618.227273 L460.755932,618.227273 L457.63115,606.899545 C456.936754,603.637727 454.999755,601.758636 451.820152,601.262273 L451.820152,601.262273 L451.820152,600.943182 C454.488095,600.659545 456.397684,599.746591 457.548919,598.204318 C458.700155,596.662045 459.275772,594.614545 459.275772,592.061818 C459.275772,589.225455 458.754975,587.009545 457.713381,585.414091 C456.671787,583.818636 455.072849,582.684091 452.916567,582.010455 C450.760285,581.336818 447.854786,581 444.20007,581 C440.326071,581 437.384025,581.035455 435.373932,581.106364 C433.363838,581.177273 431.207556,581.319091 428.905085,581.531818 L428.905085,581.531818 L428.905085,618.227273 L439.046921,618.227273 Z M443.945763,596.954545 L439.522034,596.954545 L439.522034,588.090909 L443.945763,588.090909 C445.125424,588.090909 446.026554,588.215498 446.649153,588.464677 C447.271751,588.713855 447.714124,589.149918 447.976271,589.772864 C448.238418,590.395811 448.369492,591.312432 448.369492,592.522727 C448.369492,593.733023 448.238418,594.649644 447.976271,595.27259 C447.714124,595.895537 447.271751,596.331599 446.649153,596.580778 C446.026554,596.829956 445.125424,596.954545 443.945763,596.954545 L443.945763,596.954545 Z M476.773903,618.227273 C480.771917,618.227273 484.103595,618.19146 486.768938,618.119835 C489.434281,618.048209 491.970059,617.869146 494.376271,617.582645 L494.376271,617.582645 L493.876519,610.008264 L480.882973,610.008264 C479.143096,610.008264 478.273158,609.238292 478.273158,607.698347 L478.273158,607.698347 L478.273158,581 L467.833898,581 L467.833898,610.061983 C467.833898,612.533058 468.61129,614.511708 470.166073,615.997934 C471.720857,617.48416 473.923466,618.227273 476.773903,618.227273 Z M514.910742,620 C519.107306,620 522.398202,619.423239 524.783429,618.269718 C527.168656,617.116197 528.890323,615.138732 529.948431,612.337324 C531.006539,609.535915 531.535593,605.590141 531.535593,600.5 C531.535593,595.409859 531.006539,591.464085 529.948431,588.662676 C528.890323,585.861268 527.168656,583.883803 524.783429,582.730282 C522.398202,581.576761 519.107306,581 514.910742,581 C510.785914,581 505.710582,581.183099 499.684746,581.549296 L499.684746,581.549296 L499.684746,619.450704 C504.63454,619.816901 509.709872,620 514.910742,620 Z M515.197861,611.136364 L514.023974,611.134588 C512.357701,611.12926 511.116942,611.111946 510.301695,611.082645 L510.301695,611.082645 L510.301695,588.090909 L515.197861,588.090909 C516.744018,588.090909 517.920816,588.422176 518.728254,589.084711 C519.535692,589.747245 520.102616,590.893251 520.429027,592.522727 C520.755439,594.152204 520.918644,596.524793 520.918644,599.640496 C520.918644,602.756198 520.755439,605.119835 520.429027,606.731405 C520.102616,608.342975 519.535692,609.480028 518.728254,610.142562 C517.920816,610.805096 516.744018,611.136364 515.197861,611.136364 L515.197861,611.136364 Z M549.885514,605.818182 L551,594.145223 L551,581 L540.383051,581 L540.383051,594.145223 L541.497537,605.818182 L549.885514,605.818182 Z M545.926036,618.227273 C547.169655,618.227273 548.031305,617.992647 548.510986,617.523396 C548.990668,617.054144 549.230508,616.19385 549.230508,614.942513 L549.230508,614.942513 L549.230508,612.648396 C549.230508,611.397059 548.990668,610.536765 548.510986,610.067513 C548.031305,609.598262 547.169655,609.363636 545.926036,609.363636 L545.926036,609.363636 L543.687523,609.363636 C542.443904,609.363636 541.582254,609.598262 541.102573,610.067513 C540.622892,610.536765 540.383051,611.397059 540.383051,612.648396 L540.383051,612.648396 L540.383051,614.942513 C540.383051,616.19385 540.622892,617.054144 541.102573,617.523396 C541.582254,617.992647 542.443904,618.227273 543.687523,618.227273 L543.687523,618.227273 L545.926036,618.227273 Z"/>
  </g>
</svg>
