<svg xmlns="http://www.w3.org/2000/svg" width="218" height="218" viewBox="0 0 218 218">
  <defs>
    <filter id="locdfavicon@2x-a">
      <feColorMatrix in="SourceGraphic" values="0 0 0 0 0.000000 0 0 0 0 0.000000 0 0 0 0 0.000000 0 0 0 1.000000 0"/>
    </filter>
  </defs>
  <g fill="none" fill-rule="evenodd">
    <rect width="218" height="218" fill="#FF01C8"/>
    <g transform="translate(-159 -24)">
      <ellipse cx="134.37" cy="134" fill="#FFF200" rx="134.165" ry="134"/>
      <g filter="url(#locdfavicon@2x-a)">
        <g transform="translate(177.476 37.418)">
          <path fill="#235060" fill-rule="nonzero" d="M157.444452,176.792353 L157.444452,195.046213 L163.476471,195.046213 L163.476471,176.792353 C163.476471,175.164714 162.850647,173.643541 161.71211,172.487562 C161.335114,172.107278 160.912873,171.810641 160.460462,171.544456 L160.460462,165.170897 L169.50849,140.832443 L169.50849,109.862248 L181.572527,109.862248 C183.186097,109.862248 184.694121,109.230966 185.840108,108.082503 C186.978644,106.926426 187.604469,105.405273 187.604469,103.777712 L187.604469,36.8469641 C187.604469,35.2193251 186.978644,33.6905587 185.832561,32.5421731 L185.832599,32.5419589 C184.694063,31.3934954 183.178511,30.7622143 181.572546,30.7622143 L97.1242841,30.7622143 L97.1242841,27.7199076 C97.1242841,25.2860622 96.1817836,22.9890963 94.4701959,21.2702174 C92.7661554,19.5437059 90.4890635,18.5929875 88.076256,18.5929875 L69.9801998,18.5929875 C69.1734149,18.5929875 68.4194222,18.2735501 67.8463128,17.7031152 C67.2808087,17.1250672 66.9641325,16.3645002 66.9641325,15.5506223 C66.9641325,14.7367444 67.2808087,13.9762359 67.8463128,13.3981295 C68.4193643,12.8276945 69.173357,12.5082572 69.9801998,12.5082572 L106.172312,12.5082572 C108.592648,12.5082572 110.862231,11.5575388 112.57378,9.83102728 C114.277821,8.11212885 115.22034,5.81518241 115.22034,3.38133703 L115.22034,0.339030309 L109.188322,0.339030309 L109.188322,3.38133703 C109.188322,4.19515651 108.871645,4.95572346 108.298594,5.53382988 C107.73309,6.10426483 106.979097,6.42370216 106.172235,6.42370216 L69.9801226,6.42370216 C67.5673151,6.42370216 65.2902039,7.37442058 63.5861827,9.10093208 C61.874595,10.8198305 60.9320945,13.116777 60.9320945,15.5506223 C60.9320945,17.9844677 61.874595,20.2814336 63.5861827,22.0003126 C65.2902232,23.7268241 67.5673151,24.6775425 69.9801226,24.6775425 L88.0761788,24.6775425 C88.8829637,24.6775425 89.6369564,24.9969798 90.2100657,25.5674148 C90.7755699,26.1454628 91.0922461,26.9060297 91.0922461,27.7199076 L91.0922461,30.7622143 L6.64398371,30.7622143 C5.03041387,30.7622143 3.52238988,31.3934954 2.37640284,32.5419589 C1.23786654,33.6980355 0.612042179,35.2191888 0.612042179,36.8467499 L0.612042179,103.777498 C0.612042179,105.397524 1.23786654,106.92631 2.37640284,108.074695 C3.51493913,109.230772 5.03049108,109.862053 6.64398371,109.862053 L18.7080212,109.862053 L18.7080212,140.840037 L27.7560493,165.178491 L27.7560493,171.55205 C27.3111855,171.818254 26.8814162,172.114872 26.5044006,172.495175 C25.3658643,173.643638 24.7400399,175.172405 24.7400399,176.792372 L24.7400399,195.046213 L30.7720587,195.046213 L30.7720587,176.792372 L66.9641711,176.792372 L66.9641711,195.046213 L72.9961898,195.046213 L72.9961898,176.792372 C72.9961898,175.172346 72.3703655,173.643561 71.2318292,172.495175 C70.8548328,172.114891 70.4250443,171.810661 69.9801805,171.55205 L69.9801805,165.855294 C73.358111,162.234901 85.0602273,148.863938 85.0602273,137.311156 L85.0602273,122.031085 C85.0602273,119.589646 84.1177268,117.300274 82.4061391,115.573801 C79.9481638,113.094394 76.1855353,112.432583 72.9961898,113.512626 L72.9961898,109.861858 L115.220321,109.861858 L115.220321,113.52022 C112.023448,112.440196 108.260819,113.10191 105.810372,115.581395 C104.098784,117.300293 103.156284,119.59724 103.156284,122.031085 L103.156284,137.303562 C103.156284,148.84914 114.8584,162.220297 118.23633,165.847701 L118.23633,171.544456 C117.791467,171.810661 117.361697,172.107278 116.984682,172.487562 C115.846145,173.643638 115.220321,175.164792 115.220321,176.792353 L115.220321,195.046213 L121.25234,195.046213 L121.25234,176.792353 M73.8783316,119.885855 C75.0244151,118.729778 76.9999254,118.729778 78.1459124,119.885855 C78.7114166,120.45629 79.0280928,121.216857 79.0280928,122.030754 L79.0280928,137.303231 C79.0280928,146.179173 68.7811889,158.477686 64.8301683,162.463351 L63.947988,163.360836 L63.947988,170.707934 L33.7878943,170.707934 L33.7878943,164.068014 L24.7398662,139.729561 L24.7398662,100.735464 C24.7398662,99.9216442 25.0565424,99.1610772 25.6220465,98.5829708 C26.7605828,97.4345073 28.7436404,97.4345073 29.8896274,98.5829708 C30.4551316,99.1610188 30.7718077,99.9215857 30.7718077,100.735464 L30.7718077,118.989304 L36.8038265,118.989304 L36.8038265,94.6508502 C36.8038265,93.8370307 37.1205026,93.0764638 37.6860068,92.4983573 C38.8245431,91.3498939 40.8076006,91.3498939 41.9535877,92.4983573 C42.5190918,93.0764054 42.835768,93.8369723 42.835768,94.6508502 L42.835768,118.989304 L48.8677867,118.989304 L48.8677867,88.5662368 C48.8677867,87.7524173 49.1844629,86.9918503 49.7499671,86.4137439 C50.8885034,85.2652804 52.8715609,85.2652804 54.0175479,86.4137439 C54.5830521,86.9917919 54.8997283,87.7523589 54.8997283,88.5662368 L54.8997283,118.989304 L60.931747,118.989304 L60.931747,94.6508502 C60.931747,93.8370307 61.2484232,93.0764638 61.8139273,92.4983573 C62.9524636,91.3498939 64.9355212,91.3498939 66.0815082,92.4983573 C66.6470124,93.0764054 66.9636885,93.8369723 66.9636885,94.6508502 L66.9636885,134.199864 L72.9957073,134.199864 L72.9957073,122.030637 C72.9957073,121.216818 73.3123834,120.456251 73.8778876,119.885738 L73.8783316,119.885855 Z M163.47649,139.728509 L154.428462,164.066963 L154.428462,170.706883 L124.268368,170.706883 L124.268368,163.359785 L123.386188,162.469913 C119.435168,158.476849 109.188264,146.178336 109.188264,137.302004 L109.188264,122.029527 C109.188264,121.215708 109.50494,120.455141 110.070444,119.877034 C111.216528,118.728571 113.192038,118.728571 114.338025,119.877034 C114.903529,120.455082 115.220205,121.215649 115.220205,122.029527 L115.220205,134.198754 L121.252224,134.198754 L121.252224,94.6497404 C121.252224,93.8359209 121.5689,93.0753539 122.141952,92.4972475 C123.280488,91.348784 125.263545,91.348784 126.402004,92.4972475 C126.967509,93.0752955 127.284185,93.8358625 127.284185,94.6497404 L127.284185,118.988194 L133.316204,118.988194 L133.316204,88.5651269 C133.316204,87.7513074 133.63288,86.9907405 134.205931,86.4126341 C135.344467,85.2641706 137.327525,85.2641706 138.465984,86.4126341 C139.031488,86.9906821 139.348164,87.751249 139.348164,88.5651269 L139.348164,118.988194 L145.380183,118.988194 L145.380183,94.6497404 C145.380183,93.8359209 145.696859,93.0753539 146.269911,92.4972475 C147.408447,91.348784 149.391505,91.348784 150.529964,92.4972475 C151.095468,93.0752955 151.412144,93.8358625 151.412144,94.6497404 L151.412144,118.988194 L157.444163,118.988194 L157.444163,100.734354 C157.444163,99.9205343 157.760839,99.1599674 158.33389,98.581861 C159.472427,97.4333975 161.455484,97.4333975 162.593943,98.581861 C163.159447,99.159909 163.47649,99.9204759 163.47649,100.734354 L163.47649,139.728509 Z M181.572546,103.775745 L169.508509,103.775745 L169.508509,100.733439 C169.508509,98.2995933 168.566008,96.0026274 166.861949,94.2837484 C164.320973,91.7206172 160.37748,91.0665943 157.112662,92.3214849 C156.705496,90.7851249 155.943956,89.3553089 154.797911,88.199135 C152.256935,85.6360037 148.313443,84.9819808 145.048625,86.2368715 C144.641459,84.7005115 143.879919,83.2706955 142.733874,82.1145215 C139.318303,78.6615764 133.354036,78.6615764 129.930938,82.1145215 C128.784855,83.2705981 128.023315,84.69284 127.616187,86.2368715 C124.351369,84.989516 120.407876,85.6360232 117.866901,88.199135 C116.16286,89.9180334 115.22034,92.2149799 115.22034,94.6488252 L115.22034,103.775745 L72.9962092,103.775745 L72.9962092,94.6488252 C72.9962092,92.2149799 72.0537086,89.9180139 70.3421209,88.199135 C67.8011451,85.6360037 63.8576525,84.9819808 60.5928344,86.2368715 C60.1856683,84.7005115 59.4241284,83.2706955 58.2780834,82.1145215 C54.8625131,78.6615764 48.898246,78.6615764 45.4826757,82.1145215 C44.3365922,83.2705981 43.567505,84.69284 43.1679247,86.2368715 C39.9031067,84.989516 35.9596141,85.6360232 33.4186383,88.199135 C32.2725547,89.3552115 31.5034675,90.7774534 31.1038873,92.3214849 C27.8390692,91.0741294 23.8955766,91.7206367 21.3546008,94.2837484 C19.6505603,96.0026469 18.7080405,98.2995933 18.7080405,100.733439 L18.7080405,103.775745 L6.64400301,103.775745 L6.64400301,36.8449975 L181.572546,36.8449975 L181.572546,103.775745 Z"/>
          <polygon fill="#235060" fill-rule="nonzero" points="17.679 42.538 24.357 42.538 24.357 49.201 17.679 49.201"/>
          <polygon fill="#235060" fill-rule="nonzero" points="30.293 42.538 36.972 42.538 36.972 49.201 30.293 49.201"/>
          <polygon fill="#235060" fill-rule="nonzero" points="41.424 42.538 48.102 42.538 48.102 49.201 41.424 49.201"/>
          <polygon fill="#235060" fill-rule="nonzero" points="54.038 42.538 60.717 42.538 60.717 49.201 54.038 49.201"/>
          <polygon fill="#235060" fill-rule="nonzero" points="65.911 42.538 72.589 42.538 72.589 49.201 65.911 49.201"/>
          <polygon fill="#235060" fill-rule="nonzero" points="78.526 42.538 85.204 42.538 85.204 49.201 78.526 49.201"/>
          <polygon fill="#235060" fill-rule="nonzero" points="90.398 42.538 97.076 42.538 97.076 49.201 90.398 49.201"/>
          <polygon fill="#235060" fill-rule="nonzero" points="103.013 42.538 109.691 42.538 109.691 49.201 103.013 49.201"/>
          <polygon fill="#235060" fill-rule="nonzero" points="114.885 42.538 121.563 42.538 121.563 49.201 114.885 49.201"/>
          <polygon fill="#235060" fill-rule="nonzero" points="126.016 42.538 132.694 42.538 132.694 49.201 126.016 49.201"/>
          <polygon fill="#235060" fill-rule="nonzero" points="139.372 42.538 146.051 42.538 146.051 49.201 139.372 49.201"/>
          <polygon fill="#235060" fill-rule="nonzero" points="149.761 42.538 156.439 42.538 156.439 49.201 149.761 49.201"/>
          <polygon fill="#235060" fill-rule="nonzero" points="163.117 42.538 169.796 42.538 169.796 49.201 163.117 49.201"/>
          <polygon fill="#235060" fill-rule="nonzero" points="11.001 55.124 17.679 55.124 17.679 61.787 11.001 61.787"/>
          <polygon fill="#235060" fill-rule="nonzero" points="23.615 55.124 30.293 55.124 30.293 61.787 23.615 61.787"/>
          <polygon fill="#235060" fill-rule="nonzero" points="34.746 55.124 41.424 55.124 41.424 61.787 34.746 61.787"/>
          <polygon fill="#235060" fill-rule="nonzero" points="48.102 55.124 54.78 55.124 54.78 61.787 48.102 61.787"/>
          <polygon fill="#235060" fill-rule="nonzero" points="60.717 55.124 67.395 55.124 67.395 61.787 60.717 61.787"/>
          <polygon fill="#235060" fill-rule="nonzero" points="71.847 55.124 78.526 55.124 78.526 61.787 71.847 61.787"/>
          <polygon fill="#235060" fill-rule="nonzero" points="84.462 55.124 91.14 55.124 91.14 61.787 84.462 61.787"/>
          <polygon fill="#235060" fill-rule="nonzero" points="96.334 55.124 103.013 55.124 103.013 61.787 96.334 61.787"/>
          <polygon fill="#235060" fill-rule="nonzero" points="108.207 55.124 114.885 55.124 114.885 61.787 108.207 61.787"/>
          <polygon fill="#235060" fill-rule="nonzero" points="120.821 55.124 127.5 55.124 127.5 61.787 120.821 61.787"/>
          <polygon fill="#235060" fill-rule="nonzero" points="132.694 55.124 139.372 55.124 139.372 61.787 132.694 61.787"/>
          <polygon fill="#235060" fill-rule="nonzero" points="145.309 55.124 151.987 55.124 151.987 61.787 145.309 61.787"/>
          <polygon fill="#235060" fill-rule="nonzero" points="156.439 55.124 163.117 55.124 163.117 61.787 156.439 61.787"/>
          <polygon fill="#235060" fill-rule="nonzero" points="169.796 55.124 176.474 55.124 176.474 61.787 169.796 61.787"/>
          <polygon fill="#235060" fill-rule="nonzero" points="17.679 66.969 24.357 66.969 24.357 73.632 17.679 73.632"/>
          <polygon fill="#235060" fill-rule="nonzero" points="30.293 66.969 36.972 66.969 36.972 73.632 30.293 73.632"/>
          <polygon fill="#235060" fill-rule="nonzero" points="41.424 66.969 48.102 66.969 48.102 73.632 41.424 73.632"/>
          <polygon fill="#235060" fill-rule="nonzero" points="54.038 66.969 60.717 66.969 60.717 73.632 54.038 73.632"/>
          <polygon fill="#235060" fill-rule="nonzero" points="65.911 66.969 72.589 66.969 72.589 73.632 65.911 73.632"/>
          <polygon fill="#235060" fill-rule="nonzero" points="78.526 66.969 85.204 66.969 85.204 73.632 78.526 73.632"/>
          <polygon fill="#235060" fill-rule="nonzero" points="90.398 66.969 97.076 66.969 97.076 73.632 90.398 73.632"/>
          <polygon fill="#235060" fill-rule="nonzero" points="103.013 66.969 109.691 66.969 109.691 73.632 103.013 73.632"/>
          <polygon fill="#235060" fill-rule="nonzero" points="114.885 66.969 121.563 66.969 121.563 73.632 114.885 73.632"/>
          <polygon fill="#235060" fill-rule="nonzero" points="126.016 66.969 132.694 66.969 132.694 73.632 126.016 73.632"/>
          <polygon fill="#235060" fill-rule="nonzero" points="139.372 66.969 146.051 66.969 146.051 73.632 139.372 73.632"/>
          <polygon fill="#235060" fill-rule="nonzero" points="149.761 66.969 156.439 66.969 156.439 73.632 149.761 73.632"/>
          <polygon fill="#235060" fill-rule="nonzero" points="163.117 66.969 169.796 66.969 169.796 73.632 163.117 73.632"/>
          <polygon fill="#235060" fill-rule="nonzero" points="11.001 79.554 17.679 79.554 17.679 86.217 11.001 86.217"/>
          <polygon fill="#235060" fill-rule="nonzero" points="23.615 79.554 30.293 79.554 30.293 86.217 23.615 86.217"/>
          <polygon fill="#235060" fill-rule="nonzero" points="71.847 79.554 78.526 79.554 78.526 86.217 71.847 86.217"/>
          <polygon fill="#235060" fill-rule="nonzero" points="84.462 79.554 91.14 79.554 91.14 86.217 84.462 86.217"/>
          <polygon fill="#235060" fill-rule="nonzero" points="96.334 79.554 103.013 79.554 103.013 86.217 96.334 86.217"/>
          <polygon fill="#235060" fill-rule="nonzero" points="108.207 79.554 114.885 79.554 114.885 86.217 108.207 86.217"/>
          <polygon fill="#235060" fill-rule="nonzero" points="156.439 79.554 163.117 79.554 163.117 86.217 156.439 86.217"/>
          <polygon fill="#235060" fill-rule="nonzero" points="169.796 79.554 176.474 79.554 176.474 86.217 169.796 86.217"/>
          <polygon fill="#235060" fill-rule="nonzero" points="79.268 92.14 109.691 92.14 109.691 98.803 79.268 98.803"/>
        </g>
      </g>
    </g>
  </g>
</svg>
