<svg xmlns="http://www.w3.org/2000/svg" width="92" height="92" viewBox="0 0 92 92">
  <defs>
    <filter id="green-logo-small-a">
      <feColorMatrix in="SourceGraphic" values="0 0 0 0 0.000000 0 0 0 0 0.000000 0 0 0 0 0.000000 0 0 0 1.000000 0"/>
    </filter>
  </defs>
  <g fill="none" fill-rule="evenodd" transform="translate(1 1)">
    <circle cx="45" cy="45" r="45" fill="#84FF41" stroke="#000" stroke-width="2"/>
    <g filter="url(#green-logo-small-a)">
      <g transform="translate(16.293 15.517)">
        <path fill="#235060" fill-rule="nonzero" d="M48.15352,54.1406061 L48.15352,59.7413793 L50.0055793,59.7413793 L50.0055793,54.1406061 C50.0055793,53.6412029 49.8134274,53.1744663 49.4638534,52.819781 C49.3481012,52.7030998 49.2184571,52.6120836 49.0795496,52.530411 L49.0795496,50.5748322 L51.8576387,43.1071426 L51.8576387,33.6046569 L55.5617574,33.6046569 C56.0571848,33.6046569 56.5202056,33.410963 56.8720672,33.0585836 C57.2216412,32.7038684 57.4137931,32.2371378 57.4137931,31.7377584 L57.4137931,11.201612 C57.4137931,10.7022088 57.2216412,10.2331423 56.8697499,9.88078686 L56.8697618,9.88072114 C56.5201878,9.52834178 56.0548557,9.33464783 55.5617634,9.33464783 L29.6329322,9.33464783 L29.6329322,8.40118663 C29.6329322,7.65441767 29.3435486,6.949647 28.818026,6.42224889 C28.2948207,5.89250891 27.5956669,5.60080304 26.8548431,5.60080304 L21.298665,5.60080304 C21.0509513,5.60080304 20.8194469,5.5027911 20.6434805,5.32776638 C20.4698492,5.15040577 20.3726175,4.91704346 20.3726175,4.66732392 C20.3726175,4.41760438 20.4698492,4.18425999 20.6434805,4.00688145 C20.8194291,3.83185673 21.0509335,3.73384479 21.298665,3.73384479 L32.4110212,3.73384479 C33.1541563,3.73384479 33.8510048,3.44213892 34.3765155,2.91239894 C34.8997208,2.38499486 35.1891103,1.68023016 35.1891103,0.933461199 L35.1891103,0 L33.3370509,0 L33.3370509,0.933461199 C33.3370509,1.18316282 33.2398193,1.41652513 33.0638707,1.59390367 C32.8902394,1.76892839 32.6587349,1.86694032 32.4109975,1.86694032 L21.2986413,1.86694032 C20.5578175,1.86694032 19.8586577,2.1586462 19.3354584,2.68838617 C18.8099358,3.21579026 18.5205522,3.92055496 18.5205522,4.66732392 C18.5205522,5.41409287 18.8099358,6.11886355 19.3354584,6.64626166 C19.8586636,7.17600163 20.5578175,7.46770751 21.2986413,7.46770751 L26.8548194,7.46770751 C27.1025331,7.46770751 27.3340375,7.56571944 27.5100039,7.74074417 C27.6836352,7.91810478 27.7808669,8.15146709 27.7808669,8.40118663 L27.7808669,9.33464783 L1.85203567,9.33464783 C1.3566083,9.33464783 0.893587532,9.52834178 0.541725885,9.88072114 C0.192151901,10.2354364 0,10.702167 0,11.2015463 L0,31.7376927 C0,32.23476 0.192151901,32.7038325 0.541725885,33.056188 C0.891299868,33.4109032 1.35663201,33.6045972 1.85203567,33.6045972 L5.55615441,33.6045972 L5.55615441,43.1094725 L8.33424347,50.5771621 L8.33424347,52.5327409 C8.19765335,52.6144195 8.06569782,52.7054297 7.94993966,52.8221168 C7.60036568,53.1744962 7.40821378,53.6435627 7.40821378,54.1406121 L7.40821378,59.7413793 L9.26027315,59.7413793 L9.26027315,54.1406121 L20.3726294,54.1406121 L20.3726294,59.7413793 L22.2246888,59.7413793 L22.2246888,54.1406121 C22.2246888,53.6435448 22.0325369,53.1744723 21.6829629,52.8221168 C21.5672106,52.7054357 21.4352492,52.6120896 21.2986591,52.5327409 L21.2986591,50.7848236 C22.3358123,49.6739898 25.9288075,45.5714204 25.9288075,42.0267172 L25.9288075,37.3383822 C25.9288075,36.5892834 25.639424,35.8868426 25.1139014,35.3571146 C24.3592094,34.5963661 23.2039392,34.3933047 22.2246888,34.7246909 L22.2246888,33.6045374 L35.1891044,33.6045374 L35.1891044,34.7270208 C34.2075425,34.3956406 33.0522723,34.5986721 32.2998917,35.3594445 C31.7743691,35.8868486 31.4849856,36.5916133 31.4849856,37.3383822 L31.4849856,42.0243873 C31.4849856,45.56688 35.0779808,49.6695092 36.115134,50.7824937 L36.115134,52.530411 C35.9785439,52.6120896 35.8465884,52.7030998 35.7308302,52.819781 C35.3812563,53.1744962 35.1891044,53.6412268 35.1891044,54.1406061 L35.1891044,59.7413793 L37.0411637,59.7413793 L37.0411637,54.1406061 M22.4955398,36.6801681 C22.8474311,36.3254529 23.453988,36.3254529 23.8058496,36.6801681 C23.9794809,36.8551928 24.0767126,37.0885552 24.0767126,37.3382807 L24.0767126,42.0242858 C24.0767126,44.7476625 20.930523,48.5211757 19.7174093,49.7440845 L19.4465464,50.0194571 L19.4465464,52.2737435 L10.1862495,52.2737435 L10.1862495,50.2364383 L7.40816044,42.7687487 L7.40816044,30.8043151 C7.40816044,30.5546135 7.50539208,30.3212512 7.67902338,30.1438727 C8.02859737,29.7914933 8.63747152,29.7914933 8.98933316,30.1438727 C9.16296447,30.3212333 9.26019611,30.5545956 9.26019611,30.8043151 L9.26019611,36.4050823 L11.1122555,36.4050823 L11.1122555,28.9373927 C11.1122555,28.6876911 11.2094871,28.4543288 11.3831184,28.2769503 C11.7326924,27.9245709 12.3415666,27.9245709 12.6934282,28.2769503 C12.8670595,28.4543109 12.9642911,28.6876732 12.9642911,28.9373927 L12.9642911,36.4050823 L14.8163505,36.4050823 L14.8163505,27.0704703 C14.8163505,26.8207687 14.9135821,26.5874064 15.0872135,26.4100279 C15.4367874,26.0576485 16.0456616,26.0576485 16.3975232,26.4100279 C16.5711545,26.5873885 16.6683862,26.8207508 16.6683862,27.0704703 L16.6683862,36.4050823 L18.5204456,36.4050823 L18.5204456,28.9373927 C18.5204456,28.6876911 18.6176772,28.4543288 18.7913085,28.2769503 C19.1408825,27.9245709 19.7497566,27.9245709 20.1016183,28.2769503 C20.2752496,28.4543109 20.3724812,28.6876732 20.3724812,28.9373927 L20.3724812,41.0720896 L22.2245406,41.0720896 L22.2245406,37.3382448 C22.2245406,37.0885432 22.3217722,36.8551809 22.4954035,36.6801323 L22.4955398,36.6801681 Z M50.0055853,42.7684261 L47.2274962,50.2361157 L47.2274962,52.2734209 L37.9671993,52.2734209 L37.9671993,50.0191345 L37.6963364,49.7460978 C36.4832227,48.5209188 33.3370331,44.7474057 33.3370331,42.0239094 L33.3370331,37.3379043 C33.3370331,37.0882027 33.4342648,36.8548404 33.6078961,36.6774618 C33.9597874,36.3250825 34.5663442,36.3250825 34.9182059,36.6774618 C35.0918372,36.8548224 35.1890688,37.0881848 35.1890688,37.3379043 L35.1890688,41.0717491 L37.0411282,41.0717491 L37.0411282,28.9370522 C37.0411282,28.6873506 37.1383598,28.4539883 37.3143084,28.2766098 C37.6638824,27.9242304 38.2727565,27.9242304 38.6223068,28.2766098 C38.7959381,28.4539704 38.8931698,28.6873327 38.8931698,28.9370522 L38.8931698,36.4047418 L40.7452291,36.4047418 L40.7452291,27.0701298 C40.7452291,26.8204282 40.8424608,26.5870659 41.0184094,26.4096874 C41.3679833,26.057308 41.9768575,26.057308 42.3264078,26.4096874 C42.5000391,26.587048 42.5972707,26.8204103 42.5972707,27.0701298 L42.5972707,36.4047418 L44.4493301,36.4047418 L44.4493301,28.9370522 C44.4493301,28.6873506 44.5465617,28.4539883 44.7225103,28.2766098 C45.0720843,27.9242304 45.6809585,27.9242304 46.0305087,28.2766098 C46.20414,28.4539704 46.3013717,28.6873327 46.3013717,28.9370522 L46.3013717,36.4047418 L48.1534311,36.4047418 L48.1534311,30.8039746 C48.1534311,30.554273 48.2506627,30.3209107 48.4266113,30.1435321 C48.7761853,29.7911528 49.3850594,29.7911528 49.7346097,30.1435321 C49.908241,30.3208928 50.0055853,30.5542551 50.0055853,30.8039746 L50.0055853,42.7684261 Z M55.5617634,31.737155 L51.8576446,31.737155 L51.8576446,30.8036938 C51.8576446,30.0569249 51.5682611,29.3521542 51.0450499,28.8247561 C50.2648736,28.0383188 49.0540712,27.837647 48.0516478,28.2226811 C47.9266323,27.7512847 47.6928106,27.3125788 47.3409311,26.9578337 C46.5607548,26.1713964 45.3499525,25.9707246 44.3475291,26.3557587 C44.2225136,25.8843623 43.9886918,25.4456564 43.6368124,25.0909113 C42.5881023,24.0314552 40.7568452,24.0314552 39.7058238,25.0909113 C39.3539325,25.4456266 39.1201107,25.8820085 38.9951071,26.3557587 C37.9926837,25.9730366 36.7818813,26.1714023 36.001705,26.9578337 C35.4784997,27.4852378 35.1891103,28.1900025 35.1891103,28.9367714 L35.1891103,31.737155 L22.2246947,31.737155 L22.2246947,28.9367714 C22.2246947,28.1900025 21.9353111,27.4852318 21.4097886,26.9578337 C20.6296122,26.1713964 19.4188099,25.9707246 18.4163865,26.3557587 C18.291371,25.8843623 18.0575492,25.4456564 17.7056698,25.0909113 C16.6569597,24.0314552 14.8257027,24.0314552 13.7769926,25.0909113 C13.4251013,25.4456266 13.1889622,25.8820085 13.0662759,26.3557587 C12.0638525,25.9730366 10.8530501,26.1714023 10.0728738,26.9578337 C9.72098255,27.3125489 9.4848435,27.7489309 9.36215716,28.2226811 C8.35973373,27.839959 7.14893139,28.0383247 6.36875509,28.8247561 C5.8455498,29.3521602 5.55616033,30.0569249 5.55616033,30.8036938 L5.55616033,31.737155 L1.85204159,31.737155 L1.85204159,11.2010087 L55.5617634,11.2010087 L55.5617634,31.737155 Z"/>
        <polygon fill="#235060" fill-rule="nonzero" points="5.431 12.885 7.371 12.885 7.371 14.838 5.431 14.838"/>
        <polygon fill="#235060" fill-rule="nonzero" points="9.31 12.885 11.25 12.885 11.25 14.838 9.31 14.838"/>
        <polygon fill="#235060" fill-rule="nonzero" points="12.802 12.885 14.741 12.885 14.741 14.838 12.802 14.838"/>
        <polygon fill="#235060" fill-rule="nonzero" points="16.681 12.885 18.621 12.885 18.621 14.838 16.681 14.838"/>
        <polygon fill="#235060" fill-rule="nonzero" points="20.172 12.885 22.112 12.885 22.112 14.838 20.172 14.838"/>
        <polygon fill="#235060" fill-rule="nonzero" points="24.052 12.885 25.991 12.885 25.991 14.838 24.052 14.838"/>
        <polygon fill="#235060" fill-rule="nonzero" points="27.931 12.885 29.871 12.885 29.871 14.838 27.931 14.838"/>
        <polygon fill="#235060" fill-rule="nonzero" points="31.422 12.885 33.362 12.885 33.362 14.838 31.422 14.838"/>
        <polygon fill="#235060" fill-rule="nonzero" points="35.302 12.885 37.241 12.885 37.241 14.838 35.302 14.838"/>
        <polygon fill="#235060" fill-rule="nonzero" points="38.793 12.885 40.733 12.885 40.733 14.838 38.793 14.838"/>
        <polygon fill="#235060" fill-rule="nonzero" points="42.672 12.885 44.612 12.885 44.612 14.838 42.672 14.838"/>
        <polygon fill="#235060" fill-rule="nonzero" points="46.164 12.885 48.103 12.885 48.103 14.838 46.164 14.838"/>
        <polygon fill="#235060" fill-rule="nonzero" points="50.043 12.885 51.983 12.885 51.983 14.838 50.043 14.838"/>
        <polygon fill="#235060" fill-rule="nonzero" points="3.491 16.79 5.431 16.79 5.431 18.742 3.491 18.742"/>
        <polygon fill="#235060" fill-rule="nonzero" points="7.371 16.79 9.31 16.79 9.31 18.742 7.371 18.742"/>
        <polygon fill="#235060" fill-rule="nonzero" points="10.862 16.79 12.802 16.79 12.802 18.742 10.862 18.742"/>
        <polygon fill="#235060" fill-rule="nonzero" points="14.741 16.79 16.681 16.79 16.681 18.742 14.741 18.742"/>
        <polygon fill="#235060" fill-rule="nonzero" points="18.621 16.79 20.56 16.79 20.56 18.742 18.621 18.742"/>
        <polygon fill="#235060" fill-rule="nonzero" points="22.112 16.79 24.052 16.79 24.052 18.742 22.112 18.742"/>
        <polygon fill="#235060" fill-rule="nonzero" points="25.991 16.79 27.931 16.79 27.931 18.742 25.991 18.742"/>
        <polygon fill="#235060" fill-rule="nonzero" points="29.483 16.79 31.422 16.79 31.422 18.742 29.483 18.742"/>
        <polygon fill="#235060" fill-rule="nonzero" points="33.362 16.79 35.302 16.79 35.302 18.742 33.362 18.742"/>
        <polygon fill="#235060" fill-rule="nonzero" points="36.853 16.79 38.793 16.79 38.793 18.742 36.853 18.742"/>
        <polygon fill="#235060" fill-rule="nonzero" points="40.733 16.79 42.672 16.79 42.672 18.742 40.733 18.742"/>
        <polygon fill="#235060" fill-rule="nonzero" points="44.612 16.79 46.552 16.79 46.552 18.742 44.612 18.742"/>
        <polygon fill="#235060" fill-rule="nonzero" points="48.103 16.79 50.043 16.79 50.043 18.742 48.103 18.742"/>
        <polygon fill="#235060" fill-rule="nonzero" points="51.983 16.79 53.922 16.79 53.922 18.742 51.983 18.742"/>
        <polygon fill="#235060" fill-rule="nonzero" points="5.431 20.304 7.371 20.304 7.371 22.257 5.431 22.257"/>
        <polygon fill="#235060" fill-rule="nonzero" points="9.31 20.304 11.25 20.304 11.25 22.257 9.31 22.257"/>
        <polygon fill="#235060" fill-rule="nonzero" points="12.802 20.304 14.741 20.304 14.741 22.257 12.802 22.257"/>
        <polygon fill="#235060" fill-rule="nonzero" points="16.681 20.304 18.621 20.304 18.621 22.257 16.681 22.257"/>
        <polygon fill="#235060" fill-rule="nonzero" points="20.172 20.304 22.112 20.304 22.112 22.257 20.172 22.257"/>
        <polygon fill="#235060" fill-rule="nonzero" points="24.052 20.304 25.991 20.304 25.991 22.257 24.052 22.257"/>
        <polygon fill="#235060" fill-rule="nonzero" points="27.931 20.304 29.871 20.304 29.871 22.257 27.931 22.257"/>
        <polygon fill="#235060" fill-rule="nonzero" points="31.422 20.304 33.362 20.304 33.362 22.257 31.422 22.257"/>
        <polygon fill="#235060" fill-rule="nonzero" points="35.302 20.304 37.241 20.304 37.241 22.257 35.302 22.257"/>
        <polygon fill="#235060" fill-rule="nonzero" points="38.793 20.304 40.733 20.304 40.733 22.257 38.793 22.257"/>
        <polygon fill="#235060" fill-rule="nonzero" points="42.672 20.304 44.612 20.304 44.612 22.257 42.672 22.257"/>
        <polygon fill="#235060" fill-rule="nonzero" points="46.164 20.304 48.103 20.304 48.103 22.257 46.164 22.257"/>
        <polygon fill="#235060" fill-rule="nonzero" points="50.043 20.304 51.983 20.304 51.983 22.257 50.043 22.257"/>
        <polygon fill="#235060" fill-rule="nonzero" points="3.491 24.209 5.431 24.209 5.431 26.161 3.491 26.161"/>
        <polygon fill="#235060" fill-rule="nonzero" points="7.371 24.209 9.31 24.209 9.31 26.161 7.371 26.161"/>
        <polygon fill="#235060" fill-rule="nonzero" points="22.112 24.209 24.052 24.209 24.052 26.161 22.112 26.161"/>
        <polygon fill="#235060" fill-rule="nonzero" points="25.991 24.209 27.931 24.209 27.931 26.161 25.991 26.161"/>
        <polygon fill="#235060" fill-rule="nonzero" points="29.483 24.209 31.422 24.209 31.422 26.161 29.483 26.161"/>
        <polygon fill="#235060" fill-rule="nonzero" points="33.362 24.209 35.302 24.209 35.302 26.161 33.362 26.161"/>
        <polygon fill="#235060" fill-rule="nonzero" points="48.103 24.209 50.043 24.209 50.043 26.161 48.103 26.161"/>
        <polygon fill="#235060" fill-rule="nonzero" points="51.983 24.209 53.922 24.209 53.922 26.161 51.983 26.161"/>
        <polygon fill="#235060" fill-rule="nonzero" points="24.052 28.114 33.362 28.114 33.362 30.066 24.052 30.066"/>
      </g>
    </g>
  </g>
</svg>
