<svg xmlns="http://www.w3.org/2000/svg" width="150" height="60" viewBox="0 0 150 60">
  <g fill="none" fill-rule="evenodd">
    <g transform="translate(3 4)">
      <ellipse cx="30.46" cy="25.578" fill="#68C7D4" rx="24" ry="22"/>
      <path fill="#011322" fill-opacity=".6" d="M37.3853232,0.100817086 L37.3853232,1.00550463 C37.3853232,1.72925467 37.0795056,2.41229522 36.5265988,2.92344224 C35.9712558,3.43685314 35.2348484,3.71956728 34.4495268,3.71956728 L34.4495268,3.71956728 L22.7063414,3.71956728 C22.4445467,3.71956728 22.1999001,3.81455802 22.0139632,3.98418766 C21.8304752,4.15609856 21.7277238,4.38225018 21.7277238,4.6242722 C21.7277238,4.86629421 21.8304752,5.0924632 22.0139632,5.26435673 C22.1999189,5.43398637 22.4445655,5.52897711 22.7063414,5.52897711 L22.7063414,5.52897711 L28.5779341,5.52897711 C29.3608132,5.52897711 30.0996568,5.81169125 30.6525636,6.32510216 C31.2079191,6.83624338 31.5137305,7.51928972 31.5137305,8.24303976 L31.5137305,8.24303976 L31.5137305,9.1477273 L58.9144965,9.1477273 C59.4355807,9.1477273 59.927329,9.33545069 60.2967477,9.67696807 L60.2967477,9.67696807 C60.6686027,10.018526 60.8716627,10.4731336 60.8716627,10.9571429 L60.8716627,10.9571429 L60.8716627,30.860269 C60.8716627,31.3442551 60.6686027,31.7965989 60.299184,32.1403802 C59.9273478,32.4818975 59.4380421,32.6696209 58.9144902,32.6696209 L58.9144902,32.6696209 L55.0000951,32.6696209 L55.0000951,41.8791954 L52.0642987,49.1166958 L52.0642987,51.0119945 C52.2110917,51.0911496 52.3480955,51.1793602 52.4704188,51.2924447 C52.8398375,51.6361971 53.0428975,52.0885466 53.0428975,52.5725559 L53.0428975,52.5725559 L53.0428975,58.000687 L51.0856999,58.000687 L51.0856999,52.5725559 L39.3425145,52.5725559 L39.3425145,58.000687 L37.3853169,58.000687 L37.3853169,52.5725559 C37.3853169,52.0885698 37.588377,51.636226 37.9577957,51.2924447 C38.0801252,51.1793602 38.2195716,51.0911554 38.3639157,51.0119945 L38.3639157,51.0119945 L38.3639157,49.3179562 C37.2678851,48.2392791 33.4709218,44.2631122 33.4709218,40.8298158 L33.4709218,40.8298158 L33.4709218,36.2882553 C33.4709218,35.5645053 33.7767331,34.8814647 34.3320887,34.3703177 C35.1271807,33.6329959 36.3480335,33.4362227 37.3853169,33.7573883 L37.3853169,33.7573883 L37.3853169,32.6695051 L23.6849339,32.6695051 L23.6849339,33.7551302 C24.7197748,33.4339589 25.9406276,33.630761 26.7381621,34.3680596 C27.2935177,34.8814589 27.5993291,35.5622472 27.5993291,36.2882553 L27.5993291,36.2882553 L27.5993291,40.8320739 C27.5993291,44.2675126 23.8023658,48.2436216 22.7063352,49.3202143 L22.7063352,49.3202143 L22.7063352,51.0142526 C22.8506793,51.0911554 22.9901319,51.1816241 23.1124552,51.2947086 C23.4818739,51.6362028 23.6849339,52.0908163 23.6849339,52.5725617 L23.6849339,52.5725617 L23.6849339,58.000687 L21.7277364,58.000687 L21.7277364,52.5725617 L9.98455095,52.5725617 L9.98455095,58.000687 L8.02735338,58.000687 L8.02735338,52.5725617 C8.02735338,52.0908337 8.23041341,51.636226 8.5998321,51.2947086 C8.72216165,51.1816183 8.86160806,51.0934135 9.00595217,51.0142526 L9.00595217,51.0142526 L9.00595217,49.1189539 L6.07015581,41.8814535 L6.07015581,32.669563 L2.15576067,32.669563 C1.63223381,32.669563 1.14048557,32.4818396 0.771066877,32.1380584 C0.401648185,31.7965641 0.198588154,31.3419507 0.198588154,30.8602053 L0.198588154,30.8602053 L0.198588154,10.9570792 C0.198588154,10.4730931 0.401648185,10.0207493 0.771066877,9.67696807 C1.1429031,9.33545069 1.63220876,9.1477273 2.15576067,9.1477273 L2.15576067,9.1477273 L29.5565266,9.1477273 L29.5565266,8.24303976 C29.5565266,8.00101774 29.4537753,7.77484875 29.2702873,7.60295522 C29.0843316,7.43332558 28.839685,7.33833484 28.5779091,7.33833484 L28.5779091,7.33833484 L22.7063164,7.33833484 C21.9234373,7.33833484 21.1845937,7.0556207 20.6316869,6.5422098 C20.0763313,6.03106857 19.77052,5.34802223 19.77052,4.6242722 C19.77052,3.90052216 20.0763313,3.21748161 20.6316869,2.70633459 C21.1845874,2.19292369 21.9234373,1.91020955 22.7063164,1.91020955 L22.7063164,1.91020955 L34.4495018,1.91020955 C34.7113028,1.91020955 34.9559494,1.81521881 35.1394374,1.64558917 C35.3253743,1.47367827 35.4281256,1.24750928 35.4281256,1.00550463 L35.4281256,1.00550463 L35.4281256,0.100817086 L37.3853232,0.100817086 Z M17.5269703,25.6967641 C17.1551341,25.3552467 16.5116952,25.3552467 16.1422766,25.6967641 C15.9587885,25.868675 15.8560372,26.094844 15.8560372,26.3368486 L15.8560372,26.3368486 L15.8560372,35.3837241 L13.8988396,35.3837241 L13.8988396,28.1462237 C13.8988396,27.9042017 13.7960883,27.6780327 13.6126003,27.5061392 C13.240764,27.1646218 12.5973252,27.1646218 12.2279065,27.5061392 C12.0444184,27.6780501 11.9416671,27.9042191 11.9416671,28.1462237 L11.9416671,28.1462237 L11.9416671,35.3837241 L9.98446953,35.3837241 L9.98446953,29.9555988 C9.98446953,29.7135768 9.88171822,29.4874078 9.69823017,29.3155143 C9.32639395,28.9739969 8.68295507,28.9739969 8.31353638,29.3155143 C8.13004832,29.4874252 8.02729701,29.7135942 8.02729701,29.9555988 L8.02729701,29.9555988 L8.02729701,41.5512324 L10.9630934,48.7887328 L10.9630934,50.7632387 L20.7490812,50.7632387 L20.7490812,48.57844 L21.0353206,48.3115557 C22.3173006,47.1263427 25.6420939,43.4691469 25.6420939,40.8297173 L25.6420939,40.8297173 L25.6420939,36.2881569 C25.6420939,36.0461291 25.5393426,35.8199601 25.3558546,35.6503304 C24.9840183,35.3065492 24.3430283,35.3065492 23.9711608,35.6503304 C23.7875287,35.8199485 23.6847774,36.0461175 23.6847774,36.2881221 L23.6847774,36.2881221 L23.6847774,39.9068723 L21.7275798,39.9068723 L21.7275798,28.1462237 C21.7275798,27.9042017 21.6248285,27.6780327 21.4413404,27.5061392 C21.0695042,27.1646218 20.4260653,27.1646218 20.0566466,27.5061392 C19.8731586,27.6780501 19.7704073,27.9042191 19.7704073,28.1462237 L19.7704073,28.1462237 L19.7704073,35.3837241 L17.8132097,35.3837241 L17.8132097,26.3368486 C17.8132097,26.0948266 17.7104584,25.8686576 17.5269703,25.6967641 Z M44.9277927,25.6964341 C44.558399,25.3549167 43.9149602,25.3549167 43.5455415,25.6964341 C43.3596046,25.8683449 43.2568533,26.0945139 43.2568533,26.3365186 L43.2568533,26.3365186 L43.2568533,35.3833941 L41.2996557,35.3833941 L41.2996557,28.1458937 C41.2996557,27.9038717 41.1969044,27.6777027 41.0134163,27.5058091 C40.6440227,27.1642918 40.0005838,27.1642918 39.6311651,27.5058091 C39.4452282,27.67772 39.3424769,27.903889 39.3424769,28.1458937 L39.3424769,28.1458937 L39.3424769,39.9065423 L37.3852794,39.9065423 L37.3852794,36.2877921 C37.3852794,36.0457701 37.282528,35.8196011 37.09904,35.6477076 C36.7272038,35.3061902 36.0862137,35.3061902 35.7143462,35.6477076 C35.5308581,35.8196185 35.4281068,36.0457875 35.4281068,36.2877921 L35.4281068,36.2877921 L35.4281068,40.8293526 C35.4281068,43.4688979 38.7529001,47.1260937 40.0348802,48.3135069 L40.0348802,48.3135069 L40.3211195,48.5781273 L40.3211195,50.762926 L50.1071074,50.762926 L50.1071074,48.7884201 L53.0429038,41.5509198 L53.0429038,29.9552688 C53.0429038,29.7132468 52.9400334,29.4870778 52.7565454,29.3151842 C52.3871518,28.9736669 51.7437129,28.9736669 51.3742942,29.3151842 C51.1883573,29.4870951 51.085606,29.7132641 51.085606,29.9552688 L51.085606,29.9552688 L51.085606,35.3833941 L49.1284084,35.3833941 L49.1284084,28.1458937 C49.1284084,27.9038717 49.0256571,27.6777027 48.842169,27.5058091 C48.4727754,27.1642918 47.8293365,27.1642918 47.4599178,27.5058091 C47.2739809,27.67772 47.1712296,27.903889 47.1712296,28.1458937 L47.1712296,28.1458937 L47.1712296,35.3833941 L45.2140321,35.3833941 L45.2140321,26.3365186 C45.2140321,26.0944966 45.1112807,25.8683276 44.9277927,25.6964341 Z M58.9144965,10.9565581 L2.15576693,10.9565581 L2.15576693,30.8596842 L6.07016207,30.8596842 L6.07016207,29.9549966 C6.07016207,29.2312466 6.37597967,28.5482061 6.92888642,28.037059 C7.75335198,27.2748692 9.03288947,27.082618 10.0922187,27.4535428 C10.2218698,26.9943958 10.471414,26.5714652 10.8432816,26.2276839 C11.6677471,25.4654941 12.9472846,25.2732429 14.0066139,25.6441677 C14.1362649,25.1850207 14.3858092,24.7620901 14.7576767,24.4183089 C15.8659203,23.3915102 17.8011346,23.3915102 18.9093781,24.4183089 C19.2812331,24.7621191 19.5283286,25.187302 19.660441,25.6441677 C20.7197702,25.2710022 21.9993077,25.4654883 22.8237733,26.2276839 C23.3791289,26.7388252 23.6849402,27.4218715 23.6849402,28.1456215 L23.6849402,28.1456215 L23.6849402,30.8596842 L37.3853232,30.8596842 L37.3853232,28.1456215 C37.3853232,27.4218715 37.6911408,26.738831 38.2440475,26.2276839 C39.0685131,25.4654941 40.3480506,25.2732429 41.4073799,25.6441677 C41.5394797,25.1850207 41.7865751,24.7620901 42.1584427,24.4183089 C43.2691288,23.3915102 45.2043431,23.3915102 46.3125867,24.4183089 C46.6844417,24.7621191 46.9315371,25.187302 47.0636495,25.6441677 C48.1229788,25.2710022 49.4025163,25.4654883 50.2269818,26.2276839 C50.5988368,26.5714942 50.8459323,26.996677 50.9780447,27.4535428 C52.0373739,27.0803773 53.3169114,27.2748634 54.141377,28.037059 C54.69429,28.5482003 55.0001013,29.2312466 55.0001013,29.9549966 L55.0001013,29.9549966 L55.0001013,30.8596842 L58.9144965,30.8596842 L58.9144965,10.9565581 Z M35.591215,27.3996151 L35.591215,29.3809794 L25.7198021,29.3809794 L25.7198021,27.3996151 L35.591215,27.3996151 Z M5.73621004,23.6570379 L5.73621004,25.6384023 L3.56931452,25.6384023 L3.56931452,23.6570379 L5.73621004,23.6570379 Z M9.82923491,23.6570379 L9.82923491,25.6384023 L7.66233939,25.6384023 L7.66233939,23.6570379 L9.82923491,23.6570379 Z M25.4790359,23.6570379 L25.4790359,25.6384023 L23.3121404,25.6384023 L23.3121404,23.6570379 L25.4790359,23.6570379 Z M29.5720608,23.6570379 L29.5720608,25.6384023 L27.4051652,25.6384023 L27.4051652,23.6570379 L29.5720608,23.6570379 Z M33.4243195,23.6570379 L33.4243195,25.6384023 L31.2574239,25.6384023 L31.2574239,23.6570379 L33.4243195,23.6570379 Z M37.2765782,23.6570379 L37.2765782,25.6384023 L35.1096826,25.6384023 L35.1096826,23.6570379 L37.2765782,23.6570379 Z M52.9263791,23.6570379 L52.9263791,25.6384023 L50.7594836,25.6384023 L50.7594836,23.6570379 L52.9263791,23.6570379 Z M57.2601702,23.6570379 L57.2601702,25.6384023 L55.0932747,25.6384023 L55.0932747,23.6570379 L57.2601702,23.6570379 Z M19.7006478,19.9144608 L19.7006478,21.8958251 L17.5337523,21.8958251 L17.5337523,19.9144608 L19.7006478,19.9144608 Z M27.6459314,19.9144608 L27.6459314,21.8958251 L25.4790359,21.8958251 L25.4790359,19.9144608 L27.6459314,19.9144608 Z M35.591215,19.9144608 L35.591215,21.8958251 L33.4243195,21.8958251 L33.4243195,19.9144608 L35.591215,19.9144608 Z M11.9961304,19.9144608 L11.9961304,21.8958251 L9.82923491,21.8958251 L9.82923491,19.9144608 L11.9961304,19.9144608 Z M39.4434737,19.9144608 L39.4434737,21.8958251 L37.2765782,21.8958251 L37.2765782,19.9144608 L39.4434737,19.9144608 Z M7.90310556,19.9144608 L7.90310556,21.8958251 L5.73621004,21.8958251 L5.73621004,19.9144608 L7.90310556,19.9144608 Z M43.0549662,19.9144608 L43.0549662,21.8958251 L40.8880707,21.8958251 L40.8880707,19.9144608 L43.0549662,19.9144608 Z M15.607623,19.9144608 L15.607623,21.8958251 L13.4407274,21.8958251 L13.4407274,19.9144608 L15.607623,19.9144608 Z M47.3887573,19.9144608 L47.3887573,21.8958251 L45.2218617,21.8958251 L45.2218617,19.9144608 L47.3887573,19.9144608 Z M23.5529065,19.9144608 L23.5529065,21.8958251 L21.386011,21.8958251 L21.386011,19.9144608 L23.5529065,19.9144608 Z M50.7594836,19.9144608 L50.7594836,21.8958251 L48.5925881,21.8958251 L48.5925881,19.9144608 L50.7594836,19.9144608 Z M31.4981901,19.9144608 L31.4981901,21.8958251 L29.3312946,21.8958251 L29.3312946,19.9144608 L31.4981901,19.9144608 Z M55.0932747,19.9144608 L55.0932747,21.8958251 L52.9263791,21.8958251 L52.9263791,19.9144608 L55.0932747,19.9144608 Z M25.4790359,16.3920352 L25.4790359,18.3733996 L23.3121404,18.3733996 L23.3121404,16.3920352 L25.4790359,16.3920352 Z M41.369603,16.3920352 L41.369603,18.3733996 L39.2027075,18.3733996 L39.2027075,16.3920352 L41.369603,16.3920352 Z M49.3148866,16.3920352 L49.3148866,18.3733996 L47.1479911,18.3733996 L47.1479911,16.3920352 L49.3148866,16.3920352 Z M5.73621004,16.3920352 L5.73621004,18.3733996 L3.56931452,18.3733996 L3.56931452,16.3920352 L5.73621004,16.3920352 Z M17.7745185,16.3920352 L17.7745185,18.3733996 L15.607623,18.3733996 L15.607623,16.3920352 L17.7745185,16.3920352 Z M52.9263791,16.3920352 L52.9263791,18.3733996 L50.7594836,18.3733996 L50.7594836,16.3920352 L52.9263791,16.3920352 Z M21.8675434,16.3920352 L21.8675434,18.3733996 L19.7006478,18.3733996 L19.7006478,16.3920352 L21.8675434,16.3920352 Z M57.2601702,16.3920352 L57.2601702,18.3733996 L55.0932747,18.3733996 L55.0932747,16.3920352 L57.2601702,16.3920352 Z M29.5720608,16.3920352 L29.5720608,18.3733996 L27.4051652,18.3733996 L27.4051652,16.3920352 L29.5720608,16.3920352 Z M9.82923491,16.3920352 L9.82923491,18.3733996 L7.66233939,18.3733996 L7.66233939,16.3920352 L9.82923491,16.3920352 Z M37.2765782,16.3920352 L37.2765782,18.3733996 L35.1096826,18.3733996 L35.1096826,16.3920352 L37.2765782,16.3920352 Z M13.4407274,16.3920352 L13.4407274,18.3733996 L11.2738319,18.3733996 L11.2738319,16.3920352 L13.4407274,16.3920352 Z M45.2218617,16.3920352 L45.2218617,18.3733996 L43.0549662,18.3733996 L43.0549662,16.3920352 L45.2218617,16.3920352 Z M33.4243195,16.3920352 L33.4243195,18.3733996 L31.2574239,18.3733996 L31.2574239,16.3920352 L33.4243195,16.3920352 Z M7.90310556,12.6494581 L7.90310556,14.6308225 L5.73621004,14.6308225 L5.73621004,12.6494581 L7.90310556,12.6494581 Z M11.9961304,12.6494581 L11.9961304,14.6308225 L9.82923491,14.6308225 L9.82923491,12.6494581 L11.9961304,12.6494581 Z M15.607623,12.6494581 L15.607623,14.6308225 L13.4407274,14.6308225 L13.4407274,12.6494581 L15.607623,12.6494581 Z M19.7006478,12.6494581 L19.7006478,14.6308225 L17.5337523,14.6308225 L17.5337523,12.6494581 L19.7006478,12.6494581 Z M23.5529065,12.6494581 L23.5529065,14.6308225 L21.386011,14.6308225 L21.386011,12.6494581 L23.5529065,12.6494581 Z M27.6459314,12.6494581 L27.6459314,14.6308225 L25.4790359,14.6308225 L25.4790359,12.6494581 L27.6459314,12.6494581 Z M31.4981901,12.6494581 L31.4981901,14.6308225 L29.3312946,14.6308225 L29.3312946,12.6494581 L31.4981901,12.6494581 Z M35.591215,12.6494581 L35.591215,14.6308225 L33.4243195,14.6308225 L33.4243195,12.6494581 L35.591215,12.6494581 Z M39.4434737,12.6494581 L39.4434737,14.6308225 L37.2765782,14.6308225 L37.2765782,12.6494581 L39.4434737,12.6494581 Z M43.0549662,12.6494581 L43.0549662,14.6308225 L40.8880707,14.6308225 L40.8880707,12.6494581 L43.0549662,12.6494581 Z M47.3887573,12.6494581 L47.3887573,14.6308225 L45.2218617,14.6308225 L45.2218617,12.6494581 L47.3887573,12.6494581 Z M50.7594836,12.6494581 L50.7594836,14.6308225 L48.5925881,14.6308225 L48.5925881,12.6494581 L50.7594836,12.6494581 Z M55.0932747,12.6494581 L55.0932747,14.6308225 L52.9263791,14.6308225 L52.9263791,12.6494581 L55.0932747,12.6494581 Z"/>
    </g>
    <g fill="#235060" fill-rule="nonzero" transform="rotate(3 -22.971 1359.596)">
      <path d="M6.29279052,20.6547001 L5.1786485,14.9229363 L10.3209756,13.9233692 L11.4351176,19.655133 L14.2400234,19.1099145 L11.5534397,5.28864005 L8.74853404,5.83385849 L9.84687263,11.4843207 L4.70454551,12.4838878 L3.60620691,6.83342563 L0.801301205,7.37864407 L3.48788481,21.1999186 L6.29279052,20.6547001 Z M22.0498021,17.8449678 C23.1699577,17.6272316 24.378748,17.2367138 25.6761729,16.6734144 L26.166862,16.454078 L25.7350763,14.4497647 L25.1778175,14.621365 C24.2044513,14.8949417 23.0876807,15.1542067 21.8275057,15.3991599 C21.2312938,15.5150517 20.7469747,15.4650558 20.3745483,15.249172 C20.0435027,15.0572754 19.8063697,14.7054598 19.6631493,14.1937253 L19.6138439,13.9943287 L25.5895125,12.8327764 L25.4253368,10.9030053 C24.8300741,7.84064445 23.0554635,6.59655974 20.1015048,7.17075114 C17.1068953,7.75284426 15.9638509,9.86640201 16.6723715,13.5114244 C17.0279487,15.3407107 17.6302864,16.5946974 18.4793844,17.2733843 C19.3284825,17.9520713 20.5186217,18.1425991 22.0498021,17.8449678 Z M22.7068258,11.2415899 L19.1905309,11.9250884 C19.0513147,11.1365389 19.0815563,10.5505928 19.2812559,10.16725 C19.4809555,9.78390726 19.9026241,9.52968063 20.5462619,9.40457012 C21.1898997,9.2794596 21.6713945,9.35109791 21.9907464,9.61948503 C22.2781631,9.86103344 22.5002462,10.3231566 22.6569957,11.0058545 L22.7068258,11.2415899 Z M32.6103168,15.5390912 L29.844716,1.31130867 L27.1211119,1.84072367 L29.8867127,16.0685062 L32.6103168,15.5390912 Z M39.356415,14.2277826 L36.5908143,-5.68434189e-14 L33.8672102,0.529415005 L36.6328109,14.7571976 L39.356415,14.2277826 Z M47.4507494,12.9075238 C50.5673113,12.3017256 51.7792337,10.216966 51.0865166,6.65324526 C50.7599123,4.97301189 50.1473167,3.73859698 49.24873,2.95000054 C48.3501432,2.16140409 47.0607331,1.93040801 45.3804997,2.2570123 C43.7002663,2.58361658 42.5919373,3.2842015 42.0555125,4.35876706 C41.5164538,5.41978235 41.4102266,6.79040668 41.7368309,8.47064005 C42.429548,12.0343608 44.3341875,13.5133221 47.4507494,12.9075238 Z M47.0003516,10.5904278 C46.2821873,10.7300248 45.7334171,10.5835745 45.3540408,10.1510768 C44.9882148,9.7159452 44.7038965,8.97669405 44.5010858,7.93332333 C44.298275,6.88995261 44.2896666,6.10414001 44.4752604,5.57588552 C44.6608542,5.04763104 45.1127333,4.71370531 45.8308976,4.57410831 C46.5490618,4.43451132 47.0931276,4.57484501 47.4630948,4.99510936 C47.833062,5.41537372 48.1194509,6.14719126 48.3222617,7.19056198 C48.5250724,8.2339327 48.5349978,9.02652044 48.3520379,9.56832519 C48.1690779,10.1101299 47.7185159,10.4508308 47.0003516,10.5904278 Z M12.8348855,38.4675258 L12.96711,27.5365502 L17.1845219,37.6220421 L21.4325312,36.7963127 L21.3882501,22.4614267 L18.4410666,23.0343011 L18.954115,34.7890501 L18.649234,34.8483129 L13.9491524,23.9074408 L10.6970878,24.5395781 L10.4377709,36.4444597 L10.1328898,36.5037225 L6.20517357,25.4127178 L3.25799004,25.9855922 L8.58687612,39.2932551 L12.8348855,38.4675258 Z M30.7870407,35.2311008 C33.9036026,34.6253025 35.1155249,32.540543 34.4228078,28.9768222 C34.0962035,27.2965888 33.483608,26.0621739 32.5850212,25.2735775 C31.6864344,24.484981 30.3970243,24.253985 28.7167909,24.5805892 C27.0365576,24.9071935 25.9282285,25.6077784 25.3918037,26.682344 C24.852745,27.7433593 24.7465178,29.1139836 25.0731221,30.794217 C25.7658393,34.3579378 27.6704788,35.836899 30.7870407,35.2311008 Z M30.3366428,32.9140047 C29.6184786,33.0536017 29.0697083,32.9071514 28.6903321,32.4746537 C28.3245061,32.0395221 28.0401877,31.300271 27.837377,30.2569003 C27.6345663,29.2135295 27.6259578,28.4277169 27.8115517,27.8994625 C27.9971455,27.371208 28.4490245,27.0372822 29.1671888,26.8976853 C29.8853531,26.7580883 30.4294188,26.8984219 30.799386,27.3186863 C31.1693532,27.7389507 31.4557422,28.4707682 31.6585529,29.5141389 C31.8613636,30.5575096 31.871289,31.3500974 31.6883291,31.8919021 C31.5053692,32.4337069 31.0548071,32.7744077 30.3366428,32.9140047 Z M41.3882061,32.9173225 L40.0646686,26.1083122 L40.4435207,25.8870172 C41.0897128,25.5399298 41.8562192,25.1748389 42.7430397,24.7917444 L43.1304718,24.6264588 L42.5971059,21.8825293 C41.7058252,22.2456171 40.8079773,22.8093138 39.9035621,23.5736194 L39.6018471,23.8358179 L39.3924516,22.7585715 L36.6891729,23.2840356 L38.6646021,33.4467375 L41.3882061,32.9173225 Z M50.329448,31.1793211 L47.5638472,16.9515385 L44.8402431,17.4809535 L47.6058439,31.7087361 L50.329448,31.1793211 Z M57.7530441,29.9894407 C58.3750014,29.8685444 59.066026,29.5462809 59.8261177,29.0226501 L60.0820396,28.8406485 L60.1650076,29.267482 L62.8682863,28.7420178 L60.1026855,14.5142353 L57.3790815,15.0436503 L58.1771548,19.1493818 L57.7751687,19.1431465 C56.9764643,19.1577764 56.3603078,19.2072339 55.9266992,19.2915189 C54.5174712,19.565445 53.5462473,20.1936771 53.0130276,21.176215 C52.4798078,22.158753 52.392962,23.5748278 52.7524901,25.4244396 C53.1120182,27.2740513 53.666081,28.5690617 54.4146787,29.3094707 C55.1632763,30.0498797 56.2760648,30.2765364 57.7530441,29.9894407 Z M57.6549611,27.4773014 C57.0926249,27.5866084 56.6460449,27.4413877 56.3152212,27.0416391 C55.9843975,26.6418905 55.7162633,25.9135557 55.5108187,24.8566347 C55.1315363,22.905396 55.490681,21.8231034 56.5882528,21.6097571 C57.0738041,21.5153755 57.6249604,21.4570688 58.2417216,21.4348371 L58.6196509,21.425827 L59.6587267,26.7714082 L59.3860236,26.8876964 C58.7943181,27.1714593 58.2172972,27.3679943 57.6549611,27.4773014 Z"/>
      <g transform="rotate(5 -83.019 762.446)">
        <polygon points="6.237 10.694 4.638 .394 1.307 1.065 3.526 11.24"/>
        <polygon points="7.696 16.38 6.992 13.02 3.752 13.604 4.456 16.964"/>
      </g>
    </g>
  </g>
</svg>
