<svg xmlns="http://www.w3.org/2000/svg" width="1018" height="577" viewBox="0 0 1018 577">
  <defs>
    <filter id="locdlogo@2x-a">
      <feColorMatrix in="SourceGraphic" values="0 0 0 0 0.082353 0 0 0 0 0.078431 0 0 0 0 0.121569 0 0 0 1.000000 0"/>
    </filter>
  </defs>
  <g fill="none" fill-rule="evenodd">
    <rect width="1018" height="577" fill="#FFF"/>
    <rect width="1018" height="577" fill="#FFF"/>
    <g transform="translate(335 -51)">
      <ellipse cx="579.276" cy="337.378" fill="#FFF" rx="239.774" ry="239.772"/>
      <ellipse cx="239.774" cy="337.378" fill="#FFF200" rx="239.774" ry="239.772"/>
      <ellipse cx="513.498" cy="339.5" fill="#EAAAAA" fill-opacity=".41" rx="339.502" ry="339.5" style="mix-blend-mode:hard-light"/>
      <g filter="url(#locdlogo@2x-a)">
        <g transform="translate(173.995 131.556)">
          <path fill="#235060" fill-rule="nonzero" d="M334.574337,376.897916 L334.574337,415.8875 L347.442587,415.8875 L347.442587,376.897916 C347.442587,373.421338 346.107501,370.172167 343.678634,367.703038 C342.874379,366.890766 341.973602,366.25716 341.008462,365.688599 L341.008462,352.074906 L360.310837,300.088849 L360.310837,233.937631 L386.047338,233.937631 C389.489605,233.937631 392.706708,232.589238 395.15147,230.136161 C397.580337,227.666823 398.915423,224.417695 398.915423,220.941283 L398.915423,77.9796263 C398.915423,74.5030483 397.580337,71.2376585 395.135369,68.7847484 L395.135452,68.7842909 C392.706585,66.3312144 389.473422,64.9828209 386.047379,64.9828209 L205.891878,64.9828209 L205.891878,58.4845637 C205.891878,53.285958 203.881219,48.3797219 200.229848,44.7082586 C196.594577,41.0204925 191.736803,38.9897923 186.589503,38.9897923 L147.984752,38.9897923 C146.263619,38.9897923 144.655108,38.3074857 143.43248,37.0890573 C142.226077,35.8543677 141.550504,34.2298242 141.550504,32.4914104 C141.550504,30.7529967 142.226077,29.128578 143.43248,27.8937635 C144.654985,26.6753351 146.263495,25.9930285 147.984752,25.9930285 L225.194253,25.9930285 C230.357612,25.9930285 235.199369,23.9623284 238.850657,20.2745623 C242.485928,16.6030574 244.496628,11.6968628 244.496628,6.49825713 L244.496628,0 L231.628378,0 L231.628378,6.49825713 C231.628378,8.23654612 230.952805,9.8610896 229.730301,11.095904 C228.523897,12.3143324 226.915386,12.996639 225.194088,12.996639 L147.984588,12.996639 C142.837288,12.996639 137.979472,15.0273392 134.344243,18.7151053 C130.692871,22.3866102 128.682212,27.2928047 128.682212,32.4914104 C128.682212,37.6900161 130.692871,42.5962523 134.344243,46.2677156 C137.979513,49.9554817 142.837288,51.9861818 147.984588,51.9861818 L186.589338,51.9861818 C188.310471,51.9861818 189.918982,52.6684884 191.14161,53.8869168 C192.348014,55.1216065 193.023586,56.74615 193.023586,58.4845637 L193.023586,64.9828209 L12.8680854,64.9828209 C9.42581817,64.9828209 6.20871447,66.3312144 3.76395285,68.7842909 C1.33508609,71.2536286 0,74.5027572 0,77.9791688 L0,220.940826 C0,224.401142 1.33508609,227.666574 3.76395285,230.119484 C6.19281961,232.588822 9.42598289,233.937215 12.8680854,233.937215 L38.6045855,233.937215 L38.6045855,300.105069 L57.9069606,352.091126 L57.9069606,365.704818 C56.957922,366.273421 56.041085,366.906986 55.2367884,367.719299 C52.8079217,370.172375 51.4728356,373.437765 51.4728356,376.897957 L51.4728356,415.8875 L64.3410857,415.8875 L64.3410857,376.897957 L141.550586,376.897957 L141.550586,415.8875 L154.418836,415.8875 L154.418836,376.897957 C154.418836,373.43764 153.08375,370.172209 150.654883,367.719299 C149.850628,366.907027 148.93375,366.257202 147.984711,365.704818 L147.984711,353.536754 C155.190931,345.803724 180.155336,317.243832 180.155336,292.567506 L180.155336,259.929828 C180.155336,254.715003 178.144677,249.824986 174.493306,246.137303 C169.249649,240.841379 161.222743,239.427775 154.418836,241.734708 L154.418836,233.936799 L244.496587,233.936799 L244.496587,241.750928 C237.67662,239.444036 229.649714,240.857433 224.422117,246.153523 C220.770745,249.825028 218.760087,254.731222 218.760087,259.929828 L218.760087,292.551287 C218.760087,317.212224 243.724492,345.772532 250.930712,353.520534 L250.930712,365.688599 C249.981673,366.257202 249.064836,366.890766 248.26054,367.703038 C245.831673,370.172375 244.496587,373.421504 244.496587,376.897916 L244.496587,415.8875 L257.364837,415.8875 L257.364837,376.897916 M156.30073,255.347694 C158.745698,252.878356 162.960101,252.878356 165.404863,255.347694 C166.611266,256.566122 167.286839,258.190666 167.286839,259.929121 L167.286839,292.55058 C167.286839,311.509271 145.426874,337.778449 136.998067,346.291686 L135.11609,348.208682 L135.11609,363.901817 L70.7748401,363.901817 L70.7748401,349.719189 L51.472465,297.733132 L51.472465,214.443151 C51.472465,212.704862 52.1480378,211.080318 53.3544414,209.845504 C55.7833082,207.392427 60.0138123,207.392427 62.4585739,209.845504 C63.6649775,211.080194 64.3405503,212.704737 64.3405503,214.443151 L64.3405503,253.432694 L77.2088004,253.432694 L77.2088004,201.446637 C77.2088004,199.708348 77.8843732,198.083804 79.0907768,196.84899 C81.5196436,194.395913 85.7501477,194.395913 88.1949093,196.84899 C89.4013129,198.083679 90.0768858,199.708223 90.0768858,201.446637 L90.0768858,253.432694 L102.945136,253.432694 L102.945136,188.450122 C102.945136,186.711833 103.620709,185.08729 104.827112,183.852475 C107.255979,181.399399 111.486483,181.399399 113.931245,183.852475 C115.137648,185.087165 115.813221,186.711709 115.813221,188.450122 L115.813221,253.432694 L128.681471,253.432694 L128.681471,201.446637 C128.681471,199.708348 129.357044,198.083804 130.563448,196.84899 C132.992314,194.395913 137.222819,194.395913 139.66758,196.84899 C140.873984,198.083679 141.549557,199.708223 141.549557,201.446637 L141.549557,285.9219 L154.417807,285.9219 L154.417807,259.928871 C154.417807,258.190582 155.09338,256.566039 156.299783,255.347444 L156.30073,255.347694 Z M347.442628,297.730886 L328.140253,349.716943 L328.140253,363.899571 L263.799003,363.899571 L263.799003,348.206436 L261.917027,346.305701 C253.48822,337.776661 231.628254,311.507482 231.628254,292.54796 L231.628254,259.926501 C231.628254,258.188212 232.303827,256.563668 233.510231,255.328854 C235.955198,252.875777 240.169602,252.875777 242.614363,255.328854 C243.820767,256.563544 244.49634,258.188087 244.49634,259.926501 L244.49634,285.919529 L257.36459,285.919529 L257.36459,201.444266 C257.36459,199.705977 258.040163,198.081434 259.262667,196.846619 C261.691534,194.393543 265.922038,194.393543 268.35074,196.846619 C269.557143,198.081309 270.232716,199.705852 270.232716,201.444266 L270.232716,253.430323 L283.100966,253.430323 L283.100966,188.447752 C283.100966,186.709463 283.776539,185.084919 284.999044,183.850105 C287.42791,181.397028 291.658414,181.397028 294.087116,183.850105 C295.29352,185.084794 295.969093,186.709338 295.969093,188.447752 L295.969093,253.430323 L308.837343,253.430323 L308.837343,201.444266 C308.837343,199.705977 309.512916,198.081434 310.73542,196.846619 C313.164287,194.393543 317.394791,194.393543 319.823493,196.846619 C321.029897,198.081309 321.705469,199.705852 321.705469,201.444266 L321.705469,253.430323 L334.57372,253.430323 L334.57372,214.44078 C334.57372,212.702491 335.249292,211.077948 336.471797,209.843133 C338.900663,207.390057 343.131168,207.390057 345.55987,209.843133 C346.766273,211.077823 347.442628,212.702367 347.442628,214.44078 L347.442628,297.730886 Z M386.047379,220.937083 L360.310879,220.937083 L360.310879,214.438826 C360.310879,209.24022 358.30022,204.333984 354.664908,200.66252 C349.244183,195.187765 340.831436,193.790795 333.866522,196.471197 C332.997905,193.189587 331.373293,190.135552 328.928408,187.666006 C323.507683,182.191251 315.094936,180.794281 308.130022,183.474682 C307.261404,180.193073 305.636793,177.139038 303.191908,174.669492 C295.90539,167.294126 283.181676,167.294126 275.879098,174.669492 C273.434131,177.13883 271.80952,180.176687 270.940985,183.474682 C263.97607,180.810376 255.563323,182.191292 250.142598,187.666006 C246.507328,191.337511 244.496628,196.243706 244.496628,201.442311 L244.496628,220.937083 L154.418877,220.937083 L154.418877,201.442311 C154.418877,196.243706 152.408218,191.337469 148.756847,187.666006 C143.336123,182.191251 134.923376,180.794281 127.958461,183.474682 C127.089844,180.193073 125.465232,177.139038 123.020347,174.669492 C115.733829,167.294126 103.010115,167.294126 95.7235974,174.669492 C93.2786299,177.13883 91.6379178,180.176687 90.7854837,183.474682 C83.8205691,180.810376 75.4078219,182.191292 69.9870973,187.666006 C67.5421298,190.135344 65.9014176,193.173201 65.0489835,196.471197 C58.0840689,193.80689 49.6713218,195.187806 44.2505971,200.66252 C40.6153268,204.334025 38.6046267,209.24022 38.6046267,214.438826 L38.6046267,220.937083 L12.8681265,220.937083 L12.8681265,77.9754258 L386.047379,77.9754258 L386.047379,220.937083 Z"/>
          <polygon fill="#235060" fill-rule="nonzero" points="38.194 89.119 50.925 89.119 50.925 101.85 38.194 101.85"/>
          <polygon fill="#235060" fill-rule="nonzero" points="65.779 89.119 78.51 89.119 78.51 101.85 65.779 101.85"/>
          <polygon fill="#235060" fill-rule="nonzero" points="89.119 89.119 101.851 89.119 101.851 101.85 89.119 101.85"/>
          <polygon fill="#235060" fill-rule="nonzero" points="116.704 89.119 129.435 89.119 129.435 101.85 116.704 101.85"/>
          <polygon fill="#235060" fill-rule="nonzero" points="140.045 89.119 152.776 89.119 152.776 101.85 140.045 101.85"/>
          <polygon fill="#235060" fill-rule="nonzero" points="167.629 89.119 180.361 89.119 180.361 101.85 167.629 101.85"/>
          <polygon fill="#235060" fill-rule="nonzero" points="195.214 89.119 207.945 89.119 207.945 101.85 195.214 101.85"/>
          <polygon fill="#235060" fill-rule="nonzero" points="218.555 89.119 231.286 89.119 231.286 101.85 218.555 101.85"/>
          <polygon fill="#235060" fill-rule="nonzero" points="246.139 89.119 258.871 89.119 258.871 101.85 246.139 101.85"/>
          <polygon fill="#235060" fill-rule="nonzero" points="269.48 89.119 282.211 89.119 282.211 101.85 269.48 101.85"/>
          <polygon fill="#235060" fill-rule="nonzero" points="297.065 89.119 309.796 89.119 309.796 101.85 297.065 101.85"/>
          <polygon fill="#235060" fill-rule="nonzero" points="320.405 89.119 333.137 89.119 333.137 101.85 320.405 101.85"/>
          <polygon fill="#235060" fill-rule="nonzero" points="347.99 89.119 360.721 89.119 360.721 101.85 347.99 101.85"/>
          <polygon fill="#235060" fill-rule="nonzero" points="25.463 116.703 38.194 116.703 38.194 129.434 25.463 129.434"/>
          <polygon fill="#235060" fill-rule="nonzero" points="50.925 116.703 63.657 116.703 63.657 129.434 50.925 129.434"/>
          <polygon fill="#235060" fill-rule="nonzero" points="76.388 116.703 89.119 116.703 89.119 129.434 76.388 129.434"/>
          <polygon fill="#235060" fill-rule="nonzero" points="101.851 116.703 114.582 116.703 114.582 129.434 101.851 129.434"/>
          <polygon fill="#235060" fill-rule="nonzero" points="129.435 116.703 142.167 116.703 142.167 129.434 129.435 129.434"/>
          <polygon fill="#235060" fill-rule="nonzero" points="154.898 116.703 167.629 116.703 167.629 129.434 154.898 129.434"/>
          <polygon fill="#235060" fill-rule="nonzero" points="180.361 116.703 193.092 116.703 193.092 129.434 180.361 129.434"/>
          <polygon fill="#235060" fill-rule="nonzero" points="205.823 116.703 218.555 116.703 218.555 129.434 205.823 129.434"/>
          <polygon fill="#235060" fill-rule="nonzero" points="231.286 116.703 244.017 116.703 244.017 129.434 231.286 129.434"/>
          <polygon fill="#235060" fill-rule="nonzero" points="256.749 116.703 269.48 116.703 269.48 129.434 256.749 129.434"/>
          <polygon fill="#235060" fill-rule="nonzero" points="284.333 116.703 297.065 116.703 297.065 129.434 284.333 129.434"/>
          <polygon fill="#235060" fill-rule="nonzero" points="309.796 116.703 322.527 116.703 322.527 129.434 309.796 129.434"/>
          <polygon fill="#235060" fill-rule="nonzero" points="335.259 116.703 347.99 116.703 347.99 129.434 335.259 129.434"/>
          <polygon fill="#235060" fill-rule="nonzero" points="360.721 116.703 373.453 116.703 373.453 129.434 360.721 129.434"/>
          <polygon fill="#235060" fill-rule="nonzero" points="38.194 142.166 50.925 142.166 50.925 154.897 38.194 154.897"/>
          <polygon fill="#235060" fill-rule="nonzero" points="65.779 142.166 78.51 142.166 78.51 154.897 65.779 154.897"/>
          <polygon fill="#235060" fill-rule="nonzero" points="89.119 142.166 101.851 142.166 101.851 154.897 89.119 154.897"/>
          <polygon fill="#235060" fill-rule="nonzero" points="116.704 142.166 129.435 142.166 129.435 154.897 116.704 154.897"/>
          <polygon fill="#235060" fill-rule="nonzero" points="140.045 142.166 152.776 142.166 152.776 154.897 140.045 154.897"/>
          <polygon fill="#235060" fill-rule="nonzero" points="167.629 142.166 180.361 142.166 180.361 154.897 167.629 154.897"/>
          <polygon fill="#235060" fill-rule="nonzero" points="195.214 142.166 207.945 142.166 207.945 154.897 195.214 154.897"/>
          <polygon fill="#235060" fill-rule="nonzero" points="218.555 142.166 231.286 142.166 231.286 154.897 218.555 154.897"/>
          <polygon fill="#235060" fill-rule="nonzero" points="246.139 142.166 258.871 142.166 258.871 154.897 246.139 154.897"/>
          <polygon fill="#235060" fill-rule="nonzero" points="269.48 142.166 282.211 142.166 282.211 154.897 269.48 154.897"/>
          <polygon fill="#235060" fill-rule="nonzero" points="297.065 142.166 309.796 142.166 309.796 154.897 297.065 154.897"/>
          <polygon fill="#235060" fill-rule="nonzero" points="320.405 142.166 333.137 142.166 333.137 154.897 320.405 154.897"/>
          <polygon fill="#235060" fill-rule="nonzero" points="347.99 142.166 360.721 142.166 360.721 154.897 347.99 154.897"/>
          <polygon fill="#235060" fill-rule="nonzero" points="25.463 169.75 38.194 169.75 38.194 182.481 25.463 182.481"/>
          <polygon fill="#235060" fill-rule="nonzero" points="50.925 169.75 63.657 169.75 63.657 182.481 50.925 182.481"/>
          <polygon fill="#235060" fill-rule="nonzero" points="154.898 169.75 167.629 169.75 167.629 182.481 154.898 182.481"/>
          <polygon fill="#235060" fill-rule="nonzero" points="180.361 169.75 193.092 169.75 193.092 182.481 180.361 182.481"/>
          <polygon fill="#235060" fill-rule="nonzero" points="205.823 169.75 218.555 169.75 218.555 182.481 205.823 182.481"/>
          <polygon fill="#235060" fill-rule="nonzero" points="231.286 169.75 244.017 169.75 244.017 182.481 231.286 182.481"/>
          <polygon fill="#235060" fill-rule="nonzero" points="335.259 169.75 347.99 169.75 347.99 182.481 335.259 182.481"/>
          <polygon fill="#235060" fill-rule="nonzero" points="360.721 169.75 373.453 169.75 373.453 182.481 360.721 182.481"/>
          <polygon fill="#235060" fill-rule="nonzero" points="167.629 195.213 231.286 195.213 231.286 207.944 167.629 207.944"/>
        </g>
      </g>
    </g>
    <text fill="#000" font-family="TitilliumWeb-Bold, Titillium Web" font-size="48" font-weight="bold">
      <tspan x="64" y="167">BeCode</tspan> <tspan x="220.144" y="167" font-family="TitilliumWeb-SemiBold, Titillium Web" font-weight="500"> presents</tspan>
    </text>
    <polygon fill="#FF01C8" points="-61.185 250.035 600.525 249.996 600.518 364.546 -61.192 364.584" transform="rotate(-15 269.667 307.29)"/>
    <g fill-rule="nonzero" transform="translate(85 190)">
      <path fill="#000" d="M36.9364121,139.089376 L36.9364121,111.194534 L54.9203905,111.194534 L54.9203905,139.089376 L71.8408002,139.089376 L71.8408002,68.6598457 L54.9203905,68.6598457 L54.9203905,95.7633446 L36.9364121,95.7633446 L36.9364121,68.6598457 L20.0160024,68.6598457 L20.0160024,139.089376 L36.9364121,139.089376 Z M99.6989078,141.022845 C109.32819,141.022845 114.528003,138.051033 119.824108,132.602711 L110.387411,122.894791 C107.594919,125.767543 105.187599,127.352509 99.6989078,127.352509 C93.8250455,127.352509 90.5510895,123.390093 90.5510895,119.031436 L121.557379,119.031436 L121.557379,111.800026 C121.557379,97.8325094 113.276196,86.5396235 98.2545154,86.5396235 C84.6772273,86.5396235 75.0479449,96.3466033 75.0479449,113.781234 C75.0479449,136.763248 88.2400617,141.022845 99.6989078,141.022845 Z M105.646273,107.281132 L89.7001816,107.281132 C89.7001816,106.047191 89.8995078,104.623414 90.5971493,103.294554 C91.59378,101.111429 93.7863676,99.3079773 97.6732274,99.3079773 C101.560087,99.3079773 103.752675,101.111429 104.749306,103.294554 C105.446947,104.623414 105.646273,106.047191 105.646273,107.281132 Z M147.830707,139.62424 L147.830707,125.973573 L142.164822,125.973573 C139.97799,125.973573 138.884573,124.786558 138.884573,122.709283 L138.884573,69.1947099 L122.582729,69.1947099 L122.582729,123.896297 C122.582729,131.21622 127.354,139.62424 139.182778,139.62424 L147.830707,139.62424 Z M172.654467,139.397156 L172.654467,125.746489 L166.988582,125.746489 C164.801749,125.746489 163.708333,124.559474 163.708333,122.482199 L163.708333,68.9676261 L147.406488,68.9676261 L147.406488,123.669213 C147.406488,130.989137 152.17776,139.397156 164.006537,139.397156 L172.654467,139.397156 Z M194.044865,140.538254 C202.516227,140.538254 207.774313,137.07114 210.890216,133.703086 C215.271954,128.849126 216.635162,123.797046 216.635162,113.296643 C216.635162,102.895301 215.271954,97.7441599 210.890216,92.8902001 C207.774313,89.5221464 202.516227,86.0550323 194.044865,86.0550323 C185.573504,86.0550323 180.315418,89.5221464 177.199515,92.8902001 C172.817777,97.7441599 171.454569,102.895301 171.454569,113.296643 C171.454569,123.797046 172.817777,128.849126 177.199515,133.703086 C180.315418,137.07114 185.573504,140.538254 194.044865,140.538254 Z M194.044865,125.920804 C192.090688,125.920804 190.722763,125.42379 189.745674,124.429762 C187.693787,122.342302 187.400661,118.564994 187.400661,113.296643 C187.400661,108.028292 187.693787,104.250984 189.745674,102.163525 C190.722763,101.169496 192.090688,100.672482 194.044865,100.672482 C195.999043,100.672482 197.366968,101.169496 198.344057,102.163525 C200.395944,104.250984 200.68907,108.028292 200.68907,113.296643 C200.68907,118.564994 200.395944,122.342302 198.344057,124.429762 C197.366968,125.42379 195.999043,125.920804 194.044865,125.920804 Z M258.163815,139.784747 L269.296158,105.064571 L280.428501,139.784747 L294.271328,139.784747 L313.14791,69.3552167 L295.432964,69.3552167 L286.430286,106.548339 L275.297943,69.3552167 L263.294373,69.3552167 L252.16203,106.548339 L243.159352,69.3552167 L225.444406,69.3552167 L244.417791,139.784747 L258.163815,139.784747 Z M331.687139,140.275016 C340.1585,140.275016 345.416587,136.807902 348.53249,133.439849 C352.914228,128.585889 354.277436,123.533808 354.277436,113.033406 C354.277436,102.632063 352.914228,97.4809225 348.53249,92.6269627 C345.416587,89.258909 340.1585,85.7917949 331.687139,85.7917949 C323.215778,85.7917949 317.957692,89.258909 314.841789,92.6269627 C310.46005,97.4809225 309.096843,102.632063 309.096843,113.033406 C309.096843,123.533808 310.46005,128.585889 314.841789,133.439849 C317.957692,136.807902 323.215778,140.275016 331.687139,140.275016 Z M331.687139,125.657567 C329.732961,125.657567 328.365037,125.160553 327.387948,124.166524 C325.336061,122.079064 325.042934,118.301756 325.042934,113.033406 C325.042934,107.765055 325.336061,103.987747 327.387948,101.900287 C328.365037,100.906259 329.732961,100.409245 331.687139,100.409245 C333.641317,100.409245 335.009242,100.906259 335.986331,101.900287 C338.038217,103.987747 338.331344,107.765055 338.331344,113.033406 C338.331344,118.301756 338.038217,122.079064 335.986331,124.166524 C335.009242,125.160553 333.641317,125.657567 331.687139,125.657567 Z M372.865724,140.049986 L372.865724,108.587294 C372.865724,102.62697 377.112867,101.356737 379.236439,101.356737 C381.939166,101.356737 383.387056,102.52926 384.931472,104.092623 L396.900693,91.7811349 C393.329232,88.1658566 389.854297,86.8956236 384.73842,86.8956236 C379.332965,86.8956236 374.796244,89.4360895 372.47962,91.7811349 L372.47962,87.481885 L357.035464,87.481885 L357.035464,140.049986 L372.865724,140.049986 Z M418.92064,139.349543 L418.92064,125.698875 L413.254755,125.698875 C411.067922,125.698875 409.974506,124.511861 409.974506,122.434585 L409.974506,68.9200123 L393.672661,68.9200123 L393.672661,123.6216 C393.672661,130.941523 398.443933,139.349543 410.27271,139.349543 L418.92064,139.349543 Z M434.842839,140.074451 C440.295408,140.074451 443.703264,138.406899 446.916385,135.169887 L446.916385,139.485903 L462.397788,139.485903 L462.397788,69.6449204 L446.429549,69.6449204 L446.429549,90.5383604 C443.508529,87.5956224 439.905939,86.1242534 434.745471,86.1242534 C429.682371,86.1242534 425.106108,87.8898962 422.087721,90.9307255 C417.600358,95.4514535 417.235921,103.013196 417.217195,110.004144 L417.217195,116.19456 C417.235921,123.185508 417.600358,130.74725 422.087721,135.267978 C425.106108,138.308808 429.779739,140.074451 434.842839,140.074451 Z M440.311039,125.87319 C434.350796,125.87319 433.666834,121.002451 433.666834,113.249029 C433.666834,105.495608 434.350796,100.624868 440.311039,100.624868 C446.058415,100.624868 446.899659,105.15391 446.952417,112.429427 L446.955244,113.249029 C446.955244,121.002451 446.271281,125.87319 440.311039,125.87319 Z M486.661096,115.752057 L490.918547,69.24199 L470.985933,69.24199 L475.243384,115.752057 L486.661096,115.752057 Z M488.750013,139.631693 L488.750013,123.685384 L472.803921,123.685384 L472.803921,139.631693 L488.750013,139.631693 Z" transform="rotate(-15 255.467 104.841)"/>
      <path fill="#FFF" d="M18.3326385,131.116221 L18.3326385,103.221379 L36.3166169,103.221379 L36.3166169,131.116221 L53.2370266,131.116221 L53.2370266,60.6866913 L36.3166169,60.6866913 L36.3166169,87.7901903 L18.3326385,87.7901903 L18.3326385,60.6866913 L1.41222879,60.6866913 L1.41222879,131.116221 L18.3326385,131.116221 Z M81.0951342,133.049691 C90.7244166,133.049691 95.9242291,130.077879 101.220334,124.629556 L91.7836377,114.921637 C88.9911458,117.794389 86.5838252,119.379355 81.0951342,119.379355 C75.2212719,119.379355 71.9473159,115.416939 71.9473159,111.058281 L102.953605,111.058281 L102.953605,103.826872 C102.953605,89.859355 94.6724224,78.5664691 79.6507418,78.5664691 C66.0734537,78.5664691 56.4441713,88.373449 56.4441713,105.80808 C56.4441713,128.790093 69.6362882,133.049691 81.0951342,133.049691 Z M87.0424997,99.3079773 L71.096408,99.3079773 C71.096408,98.0740368 71.2957342,96.6502592 71.9933757,95.3214001 C72.9900064,93.1382745 75.182594,91.3348229 79.0694539,91.3348229 C82.9563137,91.3348229 85.1489013,93.1382745 86.145532,95.3214001 C86.8431735,96.6502592 87.0424997,98.0740368 87.0424997,99.3079773 Z M129.226934,131.651086 L129.226934,118.000418 L123.561049,118.000418 C121.374216,118.000418 120.2808,116.813404 120.2808,114.736128 L120.2808,61.2215556 L103.978955,61.2215556 L103.978955,115.923143 C103.978955,123.243066 108.750227,131.651086 120.579004,131.651086 L129.226934,131.651086 Z M154.050693,131.424002 L154.050693,117.773335 L148.384808,117.773335 C146.197975,117.773335 145.104559,116.58632 145.104559,114.509045 L145.104559,60.9944717 L128.802715,60.9944717 L128.802715,115.696059 C128.802715,123.015982 133.573986,131.424002 145.402763,131.424002 L154.050693,131.424002 Z M175.441092,132.565099 C183.912453,132.565099 189.170539,129.097985 192.286442,125.729932 C196.668181,120.875972 198.031388,115.823891 198.031388,105.323489 C198.031388,94.9221464 196.668181,89.7710055 192.286442,84.9170458 C189.170539,81.5489921 183.912453,78.081878 175.441092,78.081878 C166.969731,78.081878 161.711644,81.5489921 158.595741,84.9170458 C154.214003,89.7710055 152.850795,94.9221464 152.850795,105.323489 C152.850795,115.823891 154.214003,120.875972 158.595741,125.729932 C161.711644,129.097985 166.969731,132.565099 175.441092,132.565099 Z M175.441092,117.94765 C173.486914,117.94765 172.118989,117.450636 171.141901,116.456607 C169.090014,114.369147 168.796887,110.591839 168.796887,105.323489 C168.796887,100.055138 169.090014,96.27783 171.141901,94.1903703 C172.118989,93.1963419 173.486914,92.6993276 175.441092,92.6993276 C177.39527,92.6993276 178.763194,93.1963419 179.740283,94.1903703 C181.79217,96.27783 182.085297,100.055138 182.085297,105.323489 C182.085297,110.591839 181.79217,114.369147 179.740283,116.456607 C178.763194,117.450636 177.39527,117.94765 175.441092,117.94765 Z M239.560041,131.811593 L250.692384,97.0914169 L261.824728,131.811593 L275.667554,131.811593 L294.544136,61.3820624 L276.82919,61.3820624 L267.826513,98.5751851 L256.694169,61.3820624 L244.690599,61.3820624 L233.558256,98.5751851 L224.555578,61.3820624 L206.840632,61.3820624 L225.814017,131.811593 L239.560041,131.811593 Z M313.083366,132.301862 C321.554727,132.301862 326.812813,128.834748 329.928716,125.466694 C334.310455,120.612735 335.673662,115.560654 335.673662,105.060251 C335.673662,94.658909 334.310455,89.5077681 329.928716,84.6538084 C326.812813,81.2857547 321.554727,77.8186406 313.083366,77.8186406 C304.612004,77.8186406 299.353918,81.2857547 296.238015,84.6538084 C291.856277,89.5077681 290.493069,94.658909 290.493069,105.060251 C290.493069,115.560654 291.856277,120.612735 296.238015,125.466694 C299.353918,128.834748 304.612004,132.301862 313.083366,132.301862 Z M313.083366,117.684412 C311.129188,117.684412 309.761263,117.187398 308.784174,116.19337 C306.732287,114.10591 306.439161,110.328602 306.439161,105.060251 C306.439161,99.7919006 306.732287,96.0145926 308.784174,93.9271329 C309.761263,92.9331045 311.129188,92.4360902 313.083366,92.4360902 C315.037543,92.4360902 316.405468,92.9331045 317.382557,93.9271329 C319.434444,96.0145926 319.72757,99.7919006 319.72757,105.060251 C319.72757,110.328602 319.434444,114.10591 317.382557,116.19337 C316.405468,117.187398 315.037543,117.684412 313.083366,117.684412 Z M354.261951,132.076832 L354.261951,100.614139 C354.261951,94.6538155 358.509094,93.3835826 360.632665,93.3835826 C363.335393,93.3835826 364.783282,94.5561053 366.327698,96.1194689 L378.296919,83.8079805 C374.725458,80.1927022 371.250523,78.9224693 366.134646,78.9224693 C360.729191,78.9224693 356.19247,81.4629351 353.875847,83.8079805 L353.875847,79.5087306 L338.43169,79.5087306 L338.43169,132.076832 L354.261951,132.076832 Z M400.316866,131.376388 L400.316866,117.725721 L394.650981,117.725721 C392.464149,117.725721 391.370732,116.538706 391.370732,114.461431 L391.370732,60.9468579 L375.068888,60.9468579 L375.068888,115.648445 C375.068888,122.968368 379.840159,131.376388 391.668937,131.376388 L400.316866,131.376388 Z M416.239065,132.101296 C421.691635,132.101296 425.09949,130.433745 428.312612,127.196733 L428.312612,131.512749 L443.794014,131.512749 L443.794014,61.671766 L427.825775,61.671766 L427.825775,82.5652061 C424.904756,79.622468 421.302165,78.151099 416.141698,78.151099 C411.078598,78.151099 406.502334,79.9167418 403.483947,82.9575711 C398.996584,87.4782991 398.632147,95.0400418 398.613421,102.03099 L398.613421,108.221406 C398.632147,115.212353 398.996584,122.774096 403.483947,127.294824 C406.502334,130.335653 411.175965,132.101296 416.239065,132.101296 Z M421.707265,117.900036 C415.747023,117.900036 415.06306,113.029297 415.06306,105.275875 C415.06306,97.5224532 415.747023,92.6517138 421.707265,92.6517138 C427.454642,92.6517138 428.295886,97.1807559 428.348644,104.456272 L428.35147,105.275875 C428.35147,113.029297 427.667508,117.900036 421.707265,117.900036 Z M468.057322,107.778903 L472.314774,61.2688356 L452.382159,61.2688356 L456.639611,107.778903 L468.057322,107.778903 Z M470.146239,131.658538 L470.146239,115.71223 L454.200148,115.71223 L454.200148,131.658538 L470.146239,131.658538 Z" transform="rotate(-15 236.864 96.868)"/>
    </g>
  </g>
</svg>
