<svg xmlns="http://www.w3.org/2000/svg" width="150" height="60" viewBox="0 0 150 60">
  <defs>
    <linearGradient id="locdlogo-rect-a" x1="-45.09%" x2="111.683%" y1="45.017%" y2="50%">
      <stop offset="0%" stop-color="#4CBEE0"/>
      <stop offset="100%" stop-color="#235060"/>
    </linearGradient>
  </defs>
  <g fill="none" fill-rule="evenodd">
    <g transform="translate(3 4)">
      <path fill="#011322" fill-opacity=".6" d="M37.3853232,0.100817086 L37.3853232,1.00550463 C37.3853232,1.72925467 37.0795056,2.41229522 36.5265988,2.92344224 C35.9712558,3.43685314 35.2348484,3.71956728 34.4495268,3.71956728 L34.4495268,3.71956728 L22.7063414,3.71956728 C22.4445467,3.71956728 22.1999001,3.81455802 22.0139632,3.98418766 C21.8304752,4.15609856 21.7277238,4.38225018 21.7277238,4.6242722 C21.7277238,4.86629421 21.8304752,5.0924632 22.0139632,5.26435673 C22.1999189,5.43398637 22.4445655,5.52897711 22.7063414,5.52897711 L22.7063414,5.52897711 L28.5779341,5.52897711 C29.3608132,5.52897711 30.0996568,5.81169125 30.6525636,6.32510216 C31.2079191,6.83624338 31.5137305,7.51928972 31.5137305,8.24303976 L31.5137305,8.24303976 L31.5137305,9.1477273 L58.9144965,9.1477273 C59.4355807,9.1477273 59.927329,9.33545069 60.2967477,9.67696807 L60.2967477,9.67696807 C60.6686027,10.018526 60.8716627,10.4731336 60.8716627,10.9571429 L60.8716627,10.9571429 L60.8716627,30.860269 C60.8716627,31.3442551 60.6686027,31.7965989 60.299184,32.1403802 C59.9273478,32.4818975 59.4380421,32.6696209 58.9144902,32.6696209 L58.9144902,32.6696209 L55.0000951,32.6696209 L55.0000951,41.8791954 L52.0642987,49.1166958 L52.0642987,51.0119945 C52.2110917,51.0911496 52.3480955,51.1793602 52.4704188,51.2924447 C52.8398375,51.6361971 53.0428975,52.0885466 53.0428975,52.5725559 L53.0428975,52.5725559 L53.0428975,58.000687 L51.0856999,58.000687 L51.0856999,52.5725559 L39.3425145,52.5725559 L39.3425145,58.000687 L37.3853169,58.000687 L37.3853169,52.5725559 C37.3853169,52.0885698 37.588377,51.636226 37.9577957,51.2924447 C38.0801252,51.1793602 38.2195716,51.0911554 38.3639157,51.0119945 L38.3639157,51.0119945 L38.3639157,49.3179562 C37.2678851,48.2392791 33.4709218,44.2631122 33.4709218,40.8298158 L33.4709218,40.8298158 L33.4709218,36.2882553 C33.4709218,35.5645053 33.7767331,34.8814647 34.3320887,34.3703177 C35.1271807,33.6329959 36.3480335,33.4362227 37.3853169,33.7573883 L37.3853169,33.7573883 L37.3853169,32.6695051 L23.6849339,32.6695051 L23.6849339,33.7551302 C24.7197748,33.4339589 25.9406276,33.630761 26.7381621,34.3680596 C27.2935177,34.8814589 27.5993291,35.5622472 27.5993291,36.2882553 L27.5993291,36.2882553 L27.5993291,40.8320739 C27.5993291,44.2675126 23.8023658,48.2436216 22.7063352,49.3202143 L22.7063352,49.3202143 L22.7063352,51.0142526 C22.8506793,51.0911554 22.9901319,51.1816241 23.1124552,51.2947086 C23.4818739,51.6362028 23.6849339,52.0908163 23.6849339,52.5725617 L23.6849339,52.5725617 L23.6849339,58.000687 L21.7277364,58.000687 L21.7277364,52.5725617 L9.98455095,52.5725617 L9.98455095,58.000687 L8.02735338,58.000687 L8.02735338,52.5725617 C8.02735338,52.0908337 8.23041341,51.636226 8.5998321,51.2947086 C8.72216165,51.1816183 8.86160806,51.0934135 9.00595217,51.0142526 L9.00595217,51.0142526 L9.00595217,49.1189539 L6.07015581,41.8814535 L6.07015581,32.669563 L2.15576067,32.669563 C1.63223381,32.669563 1.14048557,32.4818396 0.771066877,32.1380584 C0.401648185,31.7965641 0.198588154,31.3419507 0.198588154,30.8602053 L0.198588154,30.8602053 L0.198588154,10.9570792 C0.198588154,10.4730931 0.401648185,10.0207493 0.771066877,9.67696807 C1.1429031,9.33545069 1.63220876,9.1477273 2.15576067,9.1477273 L2.15576067,9.1477273 L29.5565266,9.1477273 L29.5565266,8.24303976 C29.5565266,8.00101774 29.4537753,7.77484875 29.2702873,7.60295522 C29.0843316,7.43332558 28.839685,7.33833484 28.5779091,7.33833484 L28.5779091,7.33833484 L22.7063164,7.33833484 C21.9234373,7.33833484 21.1845937,7.0556207 20.6316869,6.5422098 C20.0763313,6.03106857 19.77052,5.34802223 19.77052,4.6242722 C19.77052,3.90052216 20.0763313,3.21748161 20.6316869,2.70633459 C21.1845874,2.19292369 21.9234373,1.91020955 22.7063164,1.91020955 L22.7063164,1.91020955 L34.4495018,1.91020955 C34.7113028,1.91020955 34.9559494,1.81521881 35.1394374,1.64558917 C35.3253743,1.47367827 35.4281256,1.24750928 35.4281256,1.00550463 L35.4281256,1.00550463 L35.4281256,0.100817086 L37.3853232,0.100817086 Z M17.5269703,25.6967641 C17.1551341,25.3552467 16.5116952,25.3552467 16.1422766,25.6967641 C15.9587885,25.868675 15.8560372,26.094844 15.8560372,26.3368486 L15.8560372,26.3368486 L15.8560372,35.3837241 L13.8988396,35.3837241 L13.8988396,28.1462237 C13.8988396,27.9042017 13.7960883,27.6780327 13.6126003,27.5061392 C13.240764,27.1646218 12.5973252,27.1646218 12.2279065,27.5061392 C12.0444184,27.6780501 11.9416671,27.9042191 11.9416671,28.1462237 L11.9416671,28.1462237 L11.9416671,35.3837241 L9.98446953,35.3837241 L9.98446953,29.9555988 C9.98446953,29.7135768 9.88171822,29.4874078 9.69823017,29.3155143 C9.32639395,28.9739969 8.68295507,28.9739969 8.31353638,29.3155143 C8.13004832,29.4874252 8.02729701,29.7135942 8.02729701,29.9555988 L8.02729701,29.9555988 L8.02729701,41.5512324 L10.9630934,48.7887328 L10.9630934,50.7632387 L20.7490812,50.7632387 L20.7490812,48.57844 L21.0353206,48.3115557 C22.3173006,47.1263427 25.6420939,43.4691469 25.6420939,40.8297173 L25.6420939,40.8297173 L25.6420939,36.2881569 C25.6420939,36.0461291 25.5393426,35.8199601 25.3558546,35.6503304 C24.9840183,35.3065492 24.3430283,35.3065492 23.9711608,35.6503304 C23.7875287,35.8199485 23.6847774,36.0461175 23.6847774,36.2881221 L23.6847774,36.2881221 L23.6847774,39.9068723 L21.7275798,39.9068723 L21.7275798,28.1462237 C21.7275798,27.9042017 21.6248285,27.6780327 21.4413404,27.5061392 C21.0695042,27.1646218 20.4260653,27.1646218 20.0566466,27.5061392 C19.8731586,27.6780501 19.7704073,27.9042191 19.7704073,28.1462237 L19.7704073,28.1462237 L19.7704073,35.3837241 L17.8132097,35.3837241 L17.8132097,26.3368486 C17.8132097,26.0948266 17.7104584,25.8686576 17.5269703,25.6967641 Z M44.9277927,25.6964341 C44.558399,25.3549167 43.9149602,25.3549167 43.5455415,25.6964341 C43.3596046,25.8683449 43.2568533,26.0945139 43.2568533,26.3365186 L43.2568533,26.3365186 L43.2568533,35.3833941 L41.2996557,35.3833941 L41.2996557,28.1458937 C41.2996557,27.9038717 41.1969044,27.6777027 41.0134163,27.5058091 C40.6440227,27.1642918 40.0005838,27.1642918 39.6311651,27.5058091 C39.4452282,27.67772 39.3424769,27.903889 39.3424769,28.1458937 L39.3424769,28.1458937 L39.3424769,39.9065423 L37.3852794,39.9065423 L37.3852794,36.2877921 C37.3852794,36.0457701 37.282528,35.8196011 37.09904,35.6477076 C36.7272038,35.3061902 36.0862137,35.3061902 35.7143462,35.6477076 C35.5308581,35.8196185 35.4281068,36.0457875 35.4281068,36.2877921 L35.4281068,36.2877921 L35.4281068,40.8293526 C35.4281068,43.4688979 38.7529001,47.1260937 40.0348802,48.3135069 L40.0348802,48.3135069 L40.3211195,48.5781273 L40.3211195,50.762926 L50.1071074,50.762926 L50.1071074,48.7884201 L53.0429038,41.5509198 L53.0429038,29.9552688 C53.0429038,29.7132468 52.9400334,29.4870778 52.7565454,29.3151842 C52.3871518,28.9736669 51.7437129,28.9736669 51.3742942,29.3151842 C51.1883573,29.4870951 51.085606,29.7132641 51.085606,29.9552688 L51.085606,29.9552688 L51.085606,35.3833941 L49.1284084,35.3833941 L49.1284084,28.1458937 C49.1284084,27.9038717 49.0256571,27.6777027 48.842169,27.5058091 C48.4727754,27.1642918 47.8293365,27.1642918 47.4599178,27.5058091 C47.2739809,27.67772 47.1712296,27.903889 47.1712296,28.1458937 L47.1712296,28.1458937 L47.1712296,35.3833941 L45.2140321,35.3833941 L45.2140321,26.3365186 C45.2140321,26.0944966 45.1112807,25.8683276 44.9277927,25.6964341 Z M58.9144965,10.9565581 L2.15576693,10.9565581 L2.15576693,30.8596842 L6.07016207,30.8596842 L6.07016207,29.9549966 C6.07016207,29.2312466 6.37597967,28.5482061 6.92888642,28.037059 C7.75335198,27.2748692 9.03288947,27.082618 10.0922187,27.4535428 C10.2218698,26.9943958 10.471414,26.5714652 10.8432816,26.2276839 C11.6677471,25.4654941 12.9472846,25.2732429 14.0066139,25.6441677 C14.1362649,25.1850207 14.3858092,24.7620901 14.7576767,24.4183089 C15.8659203,23.3915102 17.8011346,23.3915102 18.9093781,24.4183089 C19.2812331,24.7621191 19.5283286,25.187302 19.660441,25.6441677 C20.7197702,25.2710022 21.9993077,25.4654883 22.8237733,26.2276839 C23.3791289,26.7388252 23.6849402,27.4218715 23.6849402,28.1456215 L23.6849402,28.1456215 L23.6849402,30.8596842 L37.3853232,30.8596842 L37.3853232,28.1456215 C37.3853232,27.4218715 37.6911408,26.738831 38.2440475,26.2276839 C39.0685131,25.4654941 40.3480506,25.2732429 41.4073799,25.6441677 C41.5394797,25.1850207 41.7865751,24.7620901 42.1584427,24.4183089 C43.2691288,23.3915102 45.2043431,23.3915102 46.3125867,24.4183089 C46.6844417,24.7621191 46.9315371,25.187302 47.0636495,25.6441677 C48.1229788,25.2710022 49.4025163,25.4654883 50.2269818,26.2276839 C50.5988368,26.5714942 50.8459323,26.996677 50.9780447,27.4535428 C52.0373739,27.0803773 53.3169114,27.2748634 54.141377,28.037059 C54.69429,28.5482003 55.0001013,29.2312466 55.0001013,29.9549966 L55.0001013,29.9549966 L55.0001013,30.8596842 L58.9144965,30.8596842 L58.9144965,10.9565581 Z M35.591215,27.3996151 L35.591215,29.3809794 L25.7198021,29.3809794 L25.7198021,27.3996151 L35.591215,27.3996151 Z M5.73621004,23.6570379 L5.73621004,25.6384023 L3.56931452,25.6384023 L3.56931452,23.6570379 L5.73621004,23.6570379 Z M9.82923491,23.6570379 L9.82923491,25.6384023 L7.66233939,25.6384023 L7.66233939,23.6570379 L9.82923491,23.6570379 Z M25.4790359,23.6570379 L25.4790359,25.6384023 L23.3121404,25.6384023 L23.3121404,23.6570379 L25.4790359,23.6570379 Z M29.5720608,23.6570379 L29.5720608,25.6384023 L27.4051652,25.6384023 L27.4051652,23.6570379 L29.5720608,23.6570379 Z M33.4243195,23.6570379 L33.4243195,25.6384023 L31.2574239,25.6384023 L31.2574239,23.6570379 L33.4243195,23.6570379 Z M37.2765782,23.6570379 L37.2765782,25.6384023 L35.1096826,25.6384023 L35.1096826,23.6570379 L37.2765782,23.6570379 Z M52.9263791,23.6570379 L52.9263791,25.6384023 L50.7594836,25.6384023 L50.7594836,23.6570379 L52.9263791,23.6570379 Z M57.2601702,23.6570379 L57.2601702,25.6384023 L55.0932747,25.6384023 L55.0932747,23.6570379 L57.2601702,23.6570379 Z M19.7006478,19.9144608 L19.7006478,21.8958251 L17.5337523,21.8958251 L17.5337523,19.9144608 L19.7006478,19.9144608 Z M27.6459314,19.9144608 L27.6459314,21.8958251 L25.4790359,21.8958251 L25.4790359,19.9144608 L27.6459314,19.9144608 Z M35.591215,19.9144608 L35.591215,21.8958251 L33.4243195,21.8958251 L33.4243195,19.9144608 L35.591215,19.9144608 Z M11.9961304,19.9144608 L11.9961304,21.8958251 L9.82923491,21.8958251 L9.82923491,19.9144608 L11.9961304,19.9144608 Z M39.4434737,19.9144608 L39.4434737,21.8958251 L37.2765782,21.8958251 L37.2765782,19.9144608 L39.4434737,19.9144608 Z M7.90310556,19.9144608 L7.90310556,21.8958251 L5.73621004,21.8958251 L5.73621004,19.9144608 L7.90310556,19.9144608 Z M43.0549662,19.9144608 L43.0549662,21.8958251 L40.8880707,21.8958251 L40.8880707,19.9144608 L43.0549662,19.9144608 Z M15.607623,19.9144608 L15.607623,21.8958251 L13.4407274,21.8958251 L13.4407274,19.9144608 L15.607623,19.9144608 Z M47.3887573,19.9144608 L47.3887573,21.8958251 L45.2218617,21.8958251 L45.2218617,19.9144608 L47.3887573,19.9144608 Z M23.5529065,19.9144608 L23.5529065,21.8958251 L21.386011,21.8958251 L21.386011,19.9144608 L23.5529065,19.9144608 Z M50.7594836,19.9144608 L50.7594836,21.8958251 L48.5925881,21.8958251 L48.5925881,19.9144608 L50.7594836,19.9144608 Z M31.4981901,19.9144608 L31.4981901,21.8958251 L29.3312946,21.8958251 L29.3312946,19.9144608 L31.4981901,19.9144608 Z M55.0932747,19.9144608 L55.0932747,21.8958251 L52.9263791,21.8958251 L52.9263791,19.9144608 L55.0932747,19.9144608 Z M25.4790359,16.3920352 L25.4790359,18.3733996 L23.3121404,18.3733996 L23.3121404,16.3920352 L25.4790359,16.3920352 Z M41.369603,16.3920352 L41.369603,18.3733996 L39.2027075,18.3733996 L39.2027075,16.3920352 L41.369603,16.3920352 Z M49.3148866,16.3920352 L49.3148866,18.3733996 L47.1479911,18.3733996 L47.1479911,16.3920352 L49.3148866,16.3920352 Z M5.73621004,16.3920352 L5.73621004,18.3733996 L3.56931452,18.3733996 L3.56931452,16.3920352 L5.73621004,16.3920352 Z M17.7745185,16.3920352 L17.7745185,18.3733996 L15.607623,18.3733996 L15.607623,16.3920352 L17.7745185,16.3920352 Z M52.9263791,16.3920352 L52.9263791,18.3733996 L50.7594836,18.3733996 L50.7594836,16.3920352 L52.9263791,16.3920352 Z M21.8675434,16.3920352 L21.8675434,18.3733996 L19.7006478,18.3733996 L19.7006478,16.3920352 L21.8675434,16.3920352 Z M57.2601702,16.3920352 L57.2601702,18.3733996 L55.0932747,18.3733996 L55.0932747,16.3920352 L57.2601702,16.3920352 Z M29.5720608,16.3920352 L29.5720608,18.3733996 L27.4051652,18.3733996 L27.4051652,16.3920352 L29.5720608,16.3920352 Z M9.82923491,16.3920352 L9.82923491,18.3733996 L7.66233939,18.3733996 L7.66233939,16.3920352 L9.82923491,16.3920352 Z M37.2765782,16.3920352 L37.2765782,18.3733996 L35.1096826,18.3733996 L35.1096826,16.3920352 L37.2765782,16.3920352 Z M13.4407274,16.3920352 L13.4407274,18.3733996 L11.2738319,18.3733996 L11.2738319,16.3920352 L13.4407274,16.3920352 Z M45.2218617,16.3920352 L45.2218617,18.3733996 L43.0549662,18.3733996 L43.0549662,16.3920352 L45.2218617,16.3920352 Z M33.4243195,16.3920352 L33.4243195,18.3733996 L31.2574239,18.3733996 L31.2574239,16.3920352 L33.4243195,16.3920352 Z M7.90310556,12.6494581 L7.90310556,14.6308225 L5.73621004,14.6308225 L5.73621004,12.6494581 L7.90310556,12.6494581 Z M11.9961304,12.6494581 L11.9961304,14.6308225 L9.82923491,14.6308225 L9.82923491,12.6494581 L11.9961304,12.6494581 Z M15.607623,12.6494581 L15.607623,14.6308225 L13.4407274,14.6308225 L13.4407274,12.6494581 L15.607623,12.6494581 Z M19.7006478,12.6494581 L19.7006478,14.6308225 L17.5337523,14.6308225 L17.5337523,12.6494581 L19.7006478,12.6494581 Z M23.5529065,12.6494581 L23.5529065,14.6308225 L21.386011,14.6308225 L21.386011,12.6494581 L23.5529065,12.6494581 Z M27.6459314,12.6494581 L27.6459314,14.6308225 L25.4790359,14.6308225 L25.4790359,12.6494581 L27.6459314,12.6494581 Z M31.4981901,12.6494581 L31.4981901,14.6308225 L29.3312946,14.6308225 L29.3312946,12.6494581 L31.4981901,12.6494581 Z M35.591215,12.6494581 L35.591215,14.6308225 L33.4243195,14.6308225 L33.4243195,12.6494581 L35.591215,12.6494581 Z M39.4434737,12.6494581 L39.4434737,14.6308225 L37.2765782,14.6308225 L37.2765782,12.6494581 L39.4434737,12.6494581 Z M43.0549662,12.6494581 L43.0549662,14.6308225 L40.8880707,14.6308225 L40.8880707,12.6494581 L43.0549662,12.6494581 Z M47.3887573,12.6494581 L47.3887573,14.6308225 L45.2218617,14.6308225 L45.2218617,12.6494581 L47.3887573,12.6494581 Z M50.7594836,12.6494581 L50.7594836,14.6308225 L48.5925881,14.6308225 L48.5925881,12.6494581 L50.7594836,12.6494581 Z M55.0932747,12.6494581 L55.0932747,14.6308225 L52.9263791,14.6308225 L52.9263791,12.6494581 L55.0932747,12.6494581 Z"/>
      <ellipse cx="30.46" cy="25.578" fill="#68C7D4" rx="24" ry="22" style="mix-blend-mode:color"/>
    </g>
    <path fill="url(#locdlogo-rect-a)" fill-rule="nonzero" d="M74.662,18 L74.662,11.532 L79.786,11.532 L79.786,18 L82.978,18 L82.978,3.51 L79.786,3.51 L79.786,9.054 L74.662,9.054 L74.662,3.51 L71.47,3.51 L71.47,18 L74.662,18 Z M91.985,18.252 C92.811,18.252 93.63,18.189 94.442,18.063 C95.254,17.937 95.94,17.741 96.5,17.475 L96.5,17.475 L96.206,15.543 C94.736,15.697 93.448,15.774 92.342,15.774 C91.516,15.774 90.9245,15.6445 90.5675,15.3855 C90.2105,15.1265 89.983,14.619 89.885,13.863 L89.885,13.863 L93.623,13.863 C94.729,13.863 95.5305,13.6215 96.0275,13.1385 C96.5245,12.6555 96.773,11.931 96.773,10.965 C96.759,9.747 96.367,8.8405 95.597,8.2455 C94.827,7.6505 93.581,7.353 91.859,7.353 C90.585,7.353 89.5665,7.528 88.8035,7.878 C88.0405,8.228 87.4805,8.7985 87.1235,9.5895 C86.7665,10.3805 86.588,11.462 86.588,12.834 C86.588,14.122 86.7665,15.1615 87.1235,15.9525 C87.4805,16.7435 88.051,17.3245 88.835,17.6955 C89.619,18.0665 90.669,18.252 91.985,18.252 Z M92.762,11.994 L89.822,11.994 C89.85,11.35 89.9305,10.86 90.0635,10.524 C90.1965,10.188 90.403,9.9535 90.683,9.8205 C90.963,9.6875 91.355,9.621 91.859,9.621 C92.573,9.621 93.063,9.7155 93.329,9.9045 C93.595,10.0935 93.728,10.433 93.728,10.923 C93.728,11.273 93.6615,11.539 93.5285,11.721 C93.3955,11.903 93.14,11.994 92.762,11.994 L92.762,11.994 Z M103.092,18.252 C103.484,18.252 103.9355,18.2135 104.4465,18.1365 C104.9575,18.0595 105.332,17.958 105.57,17.832 L105.57,17.832 L105.213,15.669 L104.373,15.669 C103.589,15.669 103.197,15.319 103.197,14.619 L103.197,14.619 L103.197,3.3 L100.11,3.3 L100.11,15.396 C100.11,16.306 100.376,17.0095 100.908,17.5065 C101.44,18.0035 102.168,18.252 103.092,18.252 Z M111.259,18.252 C111.651,18.252 112.1025,18.2135 112.6135,18.1365 C113.1245,18.0595 113.499,17.958 113.737,17.832 L113.737,17.832 L113.38,15.669 L112.54,15.669 C111.756,15.669 111.364,15.319 111.364,14.619 L111.364,14.619 L111.364,3.3 L108.277,3.3 L108.277,15.396 C108.277,16.306 108.543,17.0095 109.075,17.5065 C109.607,18.0035 110.335,18.252 111.259,18.252 Z M121.316,18.273 C122.618,18.273 123.654,18.0945 124.424,17.7375 C125.194,17.3805 125.754,16.81 126.104,16.026 C126.454,15.242 126.629,14.178 126.629,12.834 C126.629,11.49 126.454,10.4225 126.104,9.6315 C125.754,8.8405 125.194,8.263 124.424,7.899 C123.654,7.535 122.618,7.353 121.316,7.353 C120,7.353 118.957,7.5315 118.187,7.8885 C117.417,8.2455 116.857,8.823 116.507,9.621 C116.157,10.419 115.982,11.49 115.982,12.834 C115.982,14.178 116.157,15.242 116.507,16.026 C116.857,16.81 117.417,17.3805 118.187,17.7375 C118.957,18.0945 120,18.273 121.316,18.273 Z M121.316,15.942 C120.756,15.942 120.329,15.8545 120.035,15.6795 C119.741,15.5045 119.5345,15.1965 119.4155,14.7555 C119.2965,14.3145 119.237,13.674 119.237,12.834 C119.237,11.98 119.2965,11.329 119.4155,10.881 C119.5345,10.433 119.741,10.1215 120.035,9.9465 C120.329,9.7715 120.756,9.684 121.316,9.684 C121.862,9.684 122.282,9.7715 122.576,9.9465 C122.87,10.1215 123.0765,10.433 123.1955,10.881 C123.3145,11.329 123.374,11.98 123.374,12.834 C123.374,13.674 123.3145,14.3145 123.1955,14.7555 C123.0765,15.1965 122.87,15.5045 122.576,15.6795 C122.282,15.8545 121.862,15.942 121.316,15.942 Z M77.056,43 C77.35,43 77.6055,42.916 77.8225,42.748 C78.0395,42.58 78.169,42.363 78.211,42.097 L78.211,42.097 L79.765,32.647 C79.849,32.115 79.905,31.709 79.933,31.429 L79.933,31.429 L80.017,30.799 L80.416,30.799 C80.472,31.401 80.556,32.01 80.668,32.626 L80.668,32.626 L82.243,42.097 C82.285,42.363 82.411,42.58 82.621,42.748 C82.831,42.916 83.083,43 83.377,43 L83.377,43 L86.443,43 C86.737,43 86.989,42.9195 87.199,42.7585 C87.409,42.5975 87.542,42.384 87.598,42.118 L87.598,42.118 L89.887,28.51 L86.632,28.51 L85.204,38.611 C85.134,39.185 85.071,39.871 85.015,40.669 L85.015,40.669 L84.574,40.669 C84.546,40.319 84.448,39.626 84.28,38.59 L84.28,38.59 L82.726,29.497 C82.684,29.203 82.5615,28.965 82.3585,28.783 C82.1555,28.601 81.907,28.51 81.613,28.51 L81.613,28.51 L78.841,28.51 C78.533,28.51 78.2775,28.601 78.0745,28.783 C77.8715,28.965 77.749,29.203 77.707,29.497 L77.707,29.497 L76.153,38.569 C75.985,39.577 75.88,40.277 75.838,40.669 L75.838,40.669 L75.418,40.669 C75.376,39.899 75.313,39.199 75.229,38.569 L75.229,38.569 L73.822,28.51 L70.546,28.51 L72.835,42.118 C72.891,42.384 73.0275,42.5975 73.2445,42.7585 C73.4615,42.9195 73.71,43 73.99,43 L73.99,43 L77.056,43 Z M97.571,43.273 C98.873,43.273 99.909,43.0945 100.679,42.7375 C101.449,42.3805 102.009,41.81 102.359,41.026 C102.709,40.242 102.884,39.178 102.884,37.834 C102.884,36.49 102.709,35.4225 102.359,34.6315 C102.009,33.8405 101.449,33.263 100.679,32.899 C99.909,32.535 98.873,32.353 97.571,32.353 C96.255,32.353 95.212,32.5315 94.442,32.8885 C93.672,33.2455 93.112,33.823 92.762,34.621 C92.412,35.419 92.237,36.49 92.237,37.834 C92.237,39.178 92.412,40.242 92.762,41.026 C93.112,41.81 93.672,42.3805 94.442,42.7375 C95.212,43.0945 96.255,43.273 97.571,43.273 Z M97.571,40.942 C97.011,40.942 96.584,40.8545 96.29,40.6795 C95.996,40.5045 95.7895,40.1965 95.6705,39.7555 C95.5515,39.3145 95.492,38.674 95.492,37.834 C95.492,36.98 95.5515,36.329 95.6705,35.881 C95.7895,35.433 95.996,35.1215 96.29,34.9465 C96.584,34.7715 97.011,34.684 97.571,34.684 C98.117,34.684 98.537,34.7715 98.831,34.9465 C99.125,35.1215 99.3315,35.433 99.4505,35.881 C99.5695,36.329 99.629,36.98 99.629,37.834 C99.629,38.674 99.5695,39.3145 99.4505,39.7555 C99.3315,40.1965 99.125,40.5045 98.831,40.6795 C98.537,40.8545 98.117,40.942 97.571,40.942 Z M109.413,43 L109.413,35.944 C110.155,35.692 110.7605,35.51 111.2295,35.398 C111.6985,35.286 112.15,35.23 112.584,35.23 L112.584,35.23 L113.424,35.23 L113.739,32.353 L113.193,32.353 C112.521,32.353 111.828,32.5105 111.114,32.8255 C110.4,33.1405 109.693,33.592 108.993,34.18 L108.993,34.18 L108.72,32.647 L106.305,32.647 L106.305,43 L109.413,43 Z M119.533,43.252 C119.925,43.252 120.3765,43.2135 120.8875,43.1365 C121.3985,43.0595 121.773,42.958 122.011,42.832 L122.011,42.832 L121.654,40.669 L120.814,40.669 C120.03,40.669 119.638,40.319 119.638,39.619 L119.638,39.619 L119.638,28.3 L116.551,28.3 L116.551,40.396 C116.551,41.306 116.817,42.0095 117.349,42.5065 C117.881,43.0035 118.609,43.252 119.533,43.252 Z M127.952,43.252 C128.806,43.252 129.5655,43.0875 130.2305,42.7585 C130.8955,42.4295 131.459,41.999 131.921,41.467 L131.921,41.467 L132.152,43 L134.609,43 L134.609,28.3 L131.501,28.3 L131.501,31.114 C131.501,31.786 131.536,32.507 131.606,33.277 C130.71,32.661 129.59,32.353 128.246,32.353 C127.336,32.353 126.594,32.5175 126.02,32.8465 C125.446,33.1755 125.012,33.732 124.718,34.516 C124.424,35.3 124.277,36.371 124.277,37.729 C124.277,39.549 124.5675,40.9245 125.1485,41.8555 C125.7295,42.7865 126.664,43.252 127.952,43.252 Z M129.191,40.69 C128.757,40.69 128.421,40.6095 128.183,40.4485 C127.945,40.2875 127.7665,39.9935 127.6475,39.5665 C127.5285,39.1395 127.469,38.52 127.469,37.708 C127.469,36.854 127.5285,36.21 127.6475,35.776 C127.7665,35.342 127.952,35.048 128.204,34.894 C128.456,34.74 128.82,34.663 129.296,34.663 C129.674,34.663 129.9995,34.691 130.2725,34.747 C130.5455,34.803 130.955,34.908 131.501,35.062 L131.501,35.062 L131.501,39.85 C131.011,40.172 130.612,40.3925 130.304,40.5115 C129.996,40.6305 129.625,40.69 129.191,40.69 Z M141.558,38.401 L141.873,34.075 L141.873,28.405 L138.786,28.405 L138.786,34.075 L139.122,38.401 L141.558,38.401 Z M140.697,43 C141.103,43 141.3865,42.9195 141.5475,42.7585 C141.7085,42.5975 141.789,42.314 141.789,41.908 L141.789,41.908 L141.789,40.9 C141.789,40.494 141.7085,40.214 141.5475,40.06 C141.3865,39.906 141.103,39.829 140.697,39.829 L140.697,39.829 L139.983,39.829 C139.577,39.829 139.2935,39.906 139.1325,40.06 C138.9715,40.214 138.891,40.494 138.891,40.9 L138.891,40.9 L138.891,41.908 C138.891,42.314 138.9715,42.5975 139.1325,42.7585 C139.2935,42.9195 139.577,43 139.983,43 L139.983,43 L140.697,43 Z" transform="rotate(-7 106.21 23.286)"/>
  </g>
</svg>
